<?xml version="1.0" standalone="no"?>
<!DOCTYPE svg PUBLIC "-//W3C//DTD SVG 20010904//EN"
 "http://www.w3.org/TR/2001/REC-SVG-20010904/DTD/svg10.dtd">
<svg version="1.0" xmlns="http://www.w3.org/2000/svg"
 width="383.000000pt" height="335.000000pt" viewBox="0 0 383.000000 335.000000"
 preserveAspectRatio="xMidYMid meet">

<g transform="translate(0.000000,335.000000) scale(0.100000,-0.100000)"
fill="#ffc107" stroke="none">
<path d="M1710 3279 c0 -7 18 -32 41 -56 78 -85 97 -167 60 -263 -11 -28 -45
-95 -75 -148 -31 -54 -66 -127 -79 -162 -23 -64 -23 -65 -62 -68 -116 -7 -307
-36 -412 -63 -220 -55 -363 -149 -363 -236 0 -154 278 -270 748 -313 270 -25
730 -3 967 46 223 46 435 152 375 189 -5 3 -27 -7 -47 -24 -142 -113 -523
-184 -988 -184 -240 1 -363 10 -553 44 -233 40 -405 118 -445 201 -17 35 -17
39 -2 72 51 107 305 190 708 230 l57 6 0 -32 c0 -65 73 -184 105 -172 20 8 19
15 -10 55 -68 92 -65 188 12 334 129 246 127 242 127 313 1 56 -4 76 -28 120
-44 79 -136 154 -136 111z"/>
<path d="M2035 3220 c-4 -6 9 -28 29 -50 42 -47 60 -107 52 -173 -4 -27 -32
-116 -62 -199 -30 -82 -60 -181 -66 -219 -21 -120 11 -237 93 -339 18 -22 38
-40 45 -40 27 0 25 23 -5 61 -18 21 -44 62 -59 91 -24 48 -27 63 -27 158 1 93
5 115 33 193 82 225 92 258 92 323 0 75 -18 126 -62 172 -33 33 -52 40 -63 22z"/>
<path d="M3013 2059 c-58 -28 -136 -116 -171 -192 -16 -34 -49 -127 -72 -207
-95 -323 -222 -664 -278 -745 -38 -56 -147 -109 -277 -137 -83 -18 -135 -22
-305 -22 -225 -1 -325 12 -472 61 -120 40 -190 89 -221 156 -40 84 -73 209
-132 499 -56 274 -63 298 -159 501 -43 90 -65 114 -81 88 -3 -6 27 -79 66
-163 71 -152 72 -155 121 -398 94 -475 131 -575 236 -647 132 -90 349 -137
637 -137 262 0 418 31 549 108 99 58 181 245 356 811 70 226 85 259 142 321
56 61 100 86 152 86 89 2 151 -82 151 -204 0 -60 -5 -76 -52 -170 -57 -110
-169 -268 -298 -418 -146 -170 -139 -161 -124 -170 19 -13 29 -4 121 100 223
255 371 481 399 611 21 98 -36 236 -114 272 -49 23 -123 22 -174 -4z"/>
<path d="M3235 798 c-370 -263 -1080 -398 -1705 -322 -351 43 -696 157 -928
307 -51 33 -73 42 -81 34 -6 -6 -11 -14 -11 -18 0 -11 164 -107 272 -159 639
-305 1646 -297 2293 19 131 65 268 156 262 174 -7 23 -33 15 -102 -35z"/>
<path d="M338 599 c-21 -6 -38 -14 -38 -17 0 -4 -11 -8 -25 -8 -13 -1 -58 -19
-100 -39 -83 -41 -125 -88 -125 -138 0 -77 58 -100 234 -94 l125 4 -20 -28
c-28 -40 -22 -86 14 -113 24 -18 43 -21 115 -21 102 1 203 32 322 101 16 9 49
14 93 13 121 -3 124 -6 46 -48 -38 -20 -85 -49 -104 -64 -30 -24 -34 -31 -24
-48 15 -28 56 -46 71 -31 9 9 9 12 0 12 -27 0 -9 30 36 58 142 90 231 112 309
75 30 -14 42 -15 79 -5 25 7 83 12 131 12 l87 0 -50 -31 c-122 -78 -147 -112
-102 -143 25 -18 68 -21 68 -6 0 6 -7 10 -15 10 -42 0 2 42 115 110 83 50 86
51 147 46 35 -3 72 -10 83 -16 18 -10 19 -12 5 -34 -21 -31 -6 -70 37 -96 28
-17 44 -20 103 -16 39 3 79 5 90 6 37 2 210 42 219 51 17 15 2 18 -44 8 -118
-27 -232 -38 -283 -28 -68 13 -75 27 -32 65 48 43 102 57 234 64 77 3 116 9
118 17 5 14 -19 21 -107 31 l-65 7 55 24 c41 18 74 25 129 25 78 1 101 -12 56
-32 -26 -12 -35 -42 -11 -42 7 0 29 15 49 33 37 35 93 64 104 54 3 -4 -11 -49
-31 -101 -39 -98 -42 -129 -14 -134 11 -2 31 20 62 67 43 67 111 141 149 162
22 12 21 6 -2 -61 -33 -94 -3 -109 58 -28 43 58 131 147 131 133 0 -4 -14 -43
-31 -86 -35 -88 -34 -123 6 -141 31 -14 43 -4 27 23 -19 30 -6 39 29 22 63
-31 232 -15 329 31 190 91 248 126 210 126 -6 0 -47 -19 -93 -41 -109 -55
-194 -87 -263 -98 -67 -10 -94 -5 -94 19 0 48 83 92 279 148 14 4 23 12 20 17
-5 13 -53 8 -141 -15 -40 -10 -74 -17 -77 -15 -8 8 45 46 98 71 63 29 157 45
129 21 -22 -17 -13 -27 24 -27 21 0 31 6 37 23 11 27 141 92 168 83 10 -3 29
-22 41 -41 l24 -34 -46 -60 c-26 -33 -51 -63 -56 -66 -20 -12 -9 -25 19 -25
25 0 34 8 61 55 17 30 35 57 39 59 5 3 19 -6 31 -19 37 -39 101 -35 168 10 50
34 65 55 40 55 -7 0 -26 -13 -43 -29 -47 -45 -68 -47 -109 -10 -20 17 -36 38
-36 46 0 25 51 83 97 109 23 14 43 28 43 30 0 2 -13 4 -29 4 -22 0 -41 -13
-78 -50 -26 -27 -53 -50 -58 -50 -6 0 -16 10 -23 21 -12 19 -20 21 -62 16 -27
-3 -83 -20 -125 -37 -59 -25 -93 -33 -153 -35 -162 -5 -401 -143 -254 -146
l37 0 -53 -19 c-29 -10 -65 -28 -81 -39 -16 -12 -32 -21 -34 -21 -3 0 3 20 14
45 28 63 23 99 -14 103 -24 3 -39 -7 -87 -55 l-58 -58 6 34 c4 25 1 37 -12 47
-32 23 -57 5 -149 -100 -60 -70 -65 -66 -25 22 15 34 17 47 7 58 -16 19 -32
18 -89 -7 -46 -20 -50 -20 -80 -4 -103 53 -397 -29 -302 -84 13 -8 7 -11 -28
-11 -25 0 -63 -5 -85 -12 -48 -13 -81 -14 -160 -4 l-60 8 78 28 c43 15 81 31
85 34 14 15 -32 35 -96 42 -83 9 -302 -2 -315 -15 -17 -17 19 -24 54 -12 36
12 279 15 279 4 0 -5 -37 -21 -83 -37 -73 -26 -99 -30 -239 -35 -89 -4 -183
-2 -215 4 l-58 10 45 14 c96 28 131 43 127 55 -15 45 -392 71 -392 26 0 -10 7
-14 20 -11 41 8 212 12 253 6 52 -8 54 -21 5 -29 -21 -4 -62 -16 -92 -27 -47
-17 -68 -19 -167 -13 l-114 7 25 25 c58 57 7 122 -96 122 -21 0 -41 5 -44 10
-18 30 -187 -16 -287 -77 -34 -21 -49 -23 -175 -23 -144 0 -210 11 -220 36
-20 53 214 169 379 188 56 6 118 -9 118 -29 0 -23 -76 -55 -145 -62 -54 -5
-65 -9 -65 -24 0 -28 13 -30 82 -10 112 32 158 63 158 105 0 39 -47 58 -155
62 -49 2 -107 -2 -127 -7z m347 -200 c-51 -27 -89 -64 -81 -78 13 -20 34 -11
54 23 16 27 32 38 73 50 66 20 109 20 136 1 43 -30 -1 -77 -133 -143 -105 -53
-165 -72 -244 -79 -81 -7 -97 5 -73 54 22 47 147 139 238 176 57 23 77 21 30
-4z"/>
</g>
</svg>
