<?xml version="1.0" standalone="no"?>
<!DOCTYPE svg PUBLIC "-//W3C//DTD SVG 20010904//EN"
 "http://www.w3.org/TR/2001/REC-SVG-20010904/DTD/svg10.dtd">
<svg version="1.0" xmlns="http://www.w3.org/2000/svg"
 width="478.000000pt" height="129.000000pt" viewBox="0 0 478.000000 129.000000"
 preserveAspectRatio="xMidYMid meet">

<g transform="translate(0.000000,129.000000) scale(0.100000,-0.100000)"
fill="#694300" stroke="none">
<path d="M3973 1242 c-7 -4 -36 -77 -64 -162 -56 -167 -101 -267 -146 -320
l-28 -34 34 20 c78 44 216 253 279 422 18 46 18 54 5 67 -15 16 -60 20 -80 7z"/>
<path d="M4286 1208 c-8 -13 -30 -89 -50 -169 -40 -166 -65 -234 -106 -296
-23 -34 -25 -41 -11 -33 74 39 204 259 251 426 l19 64 -22 15 c-31 22 -64 19
-81 -7z"/>
<path d="M4646 1217 c-12 -8 -32 -69 -61 -182 -47 -185 -63 -228 -106 -292
-40 -60 -21 -54 40 12 79 87 161 245 205 392 14 51 14 53 -7 68 -26 18 -48 19
-71 2z"/>
<path d="M37 919 c-16 -10 -15 -13 14 -47 39 -44 93 -155 118 -242 l18 -65
-27 -150 c-15 -82 -24 -154 -20 -159 5 -4 21 -5 37 -2 29 7 29 7 55 155 l26
147 84 85 c156 156 218 289 124 265 -18 -4 -22 -11 -19 -33 3 -20 -7 -45 -34
-88 -39 -59 -149 -185 -162 -185 -4 0 -17 33 -30 73 -29 90 -83 205 -111 235
-23 24 -45 27 -73 11z"/>
<path d="M916 689 c-12 -73 -127 -280 -187 -336 -35 -31 -72 -38 -94 -17 -15
15 -17 29 -11 89 3 38 15 104 26 145 27 104 26 126 -6 134 -15 4 -29 4 -32 1
-12 -11 -62 -280 -62 -332 0 -71 34 -113 91 -113 33 0 48 7 88 45 26 24 71 85
101 135 29 49 55 90 58 90 3 0 2 -20 -1 -44 -9 -64 8 -155 34 -183 59 -62 169
10 264 173 21 36 40 63 42 61 2 -2 -2 -61 -9 -132 -11 -119 -11 -128 6 -141
28 -20 41 -8 60 54 27 84 124 266 162 303 37 35 64 34 64 -4 0 -13 -11 -84
-25 -158 -28 -151 -31 -195 -12 -202 27 -9 44 10 90 102 59 121 154 261 189
281 47 26 51 7 28 -125 -30 -176 -25 -225 29 -251 38 -19 81 0 141 64 46 48
119 156 133 196 3 6 7 9 10 5 4 -3 1 -61 -5 -128 -10 -114 -10 -125 6 -137 28
-20 41 -8 60 53 10 31 41 100 68 155 58 114 116 185 141 175 23 -8 22 -31 -8
-191 -28 -152 -31 -192 -12 -199 27 -9 44 10 90 102 59 121 154 261 189 281
47 26 51 7 28 -125 -30 -176 -25 -225 29 -251 65 -33 168 61 266 244 16 29 32
49 36 45 13 -14 60 -156 74 -223 13 -60 12 -67 -6 -96 -30 -49 -111 -120 -153
-134 -21 -7 -53 -10 -71 -7 -32 5 -45 -4 -45 -33 0 -16 31 -40 52 -40 64 0
193 112 287 249 71 104 160 271 191 359 22 60 22 63 5 82 -27 30 -43 24 -51
-17 -13 -80 -38 -152 -87 -255 -27 -60 -53 -108 -57 -108 -3 0 -16 41 -28 90
-29 121 -79 248 -102 260 -18 10 -70 -2 -70 -16 0 -3 9 -19 20 -35 20 -27 20
-30 4 -61 -67 -132 -163 -248 -205 -248 -40 0 -45 41 -21 184 25 146 27 178
12 207 -13 24 -61 25 -96 2 -39 -25 -117 -133 -169 -234 -26 -50 -49 -89 -51
-86 -3 2 4 55 16 117 23 129 25 191 8 208 -24 24 -67 13 -107 -27 -43 -43
-121 -170 -147 -238 -9 -24 -21 -43 -26 -43 -6 0 -8 6 -5 14 3 8 9 69 13 135
7 132 4 141 -51 127 -21 -5 -24 -11 -19 -35 7 -32 -13 -76 -88 -193 -81 -126
-145 -168 -170 -112 -10 21 -8 51 10 158 25 146 27 178 12 207 -14 25 -64 25
-100 -1 -42 -30 -111 -126 -164 -230 -26 -50 -50 -90 -52 -87 -3 2 4 55 16
117 23 129 25 191 8 208 -24 24 -67 13 -107 -27 -42 -42 -118 -165 -148 -238
-17 -41 -40 -61 -29 -25 3 9 8 70 12 134 7 128 4 138 -50 124 -21 -5 -24 -11
-20 -39 4 -25 -5 -49 -42 -115 -64 -111 -133 -182 -179 -182 -28 0 -35 5 -44
31 -15 42 -13 97 4 194 32 171 32 155 -7 155 -34 0 -36 -2 -42 -41z"/>
<path d="M3605 607 c-110 -58 -134 -75 -166 -121 -38 -51 -39 -98 -3 -131 78
-73 245 -20 304 96 33 65 22 126 -32 176 l-23 22 -80 -42z"/>
<path d="M3993 601 c-23 -14 -44 -29 -47 -32 -8 -8 -86 -222 -82 -226 1 -2 20
35 41 82 21 47 42 85 46 85 13 0 11 -9 -16 -90 -14 -40 -24 -75 -22 -76 2 -2
21 32 42 76 22 44 45 80 52 80 16 0 16 0 -2 -44 -65 -155 -65 -179 0 -47 21
45 45 81 52 81 17 0 18 2 -21 -84 -19 -42 -33 -76 -31 -76 1 0 29 46 60 103
l57 102 -15 40 c-19 54 -56 62 -114 26z"/>
<path d="M4378 548 c-102 -122 -218 -267 -218 -272 0 -15 50 -3 95 23 103 59
162 143 172 246 3 30 3 55 0 55 -3 0 -25 -24 -49 -52z"/>
</g>
</svg>
