<?xml version="1.0" standalone="no"?>
<!DOCTYPE svg PUBLIC "-//W3C//DTD SVG 20010904//EN"
 "http://www.w3.org/TR/2001/REC-SVG-20010904/DTD/svg10.dtd">
<svg version="1.0" xmlns="http://www.w3.org/2000/svg"
 width="100.000000pt" height="100.000000pt" viewBox="0 0 100.000000 100.000000"
 preserveAspectRatio="xMidYMid meet">
<metadata>
Created by potrace 1.10, written by Peter Selinger 2001-2011
</metadata>
<g transform="translate(0.000000,100.000000) scale(0.050000,-0.050000)"
fill="#694300" stroke="none">
<path d="M772 1888 c-340 -82 -616 -384 -676 -741 -144 -860 903 -1411 1532
-807 679 652 61 1770 -856 1548z m708 -553 c0 -36 -437 -405 -480 -405 -43 0
-480 369 -480 405 0 19 109 25 480 25 371 0 480 -6 480 -25z m-743 -322 c22
-26 -15 -66 -192 -199 -20 -15 -25 25 -25 185 l0 205 97 -82 c53 -44 108 -93
120 -109z m739 -113 l-6 -100 -118 94 -118 94 118 105 118 105 6 -99 c3 -55 3
-144 0 -199z m-474 -60 c26 0 75 22 107 48 l59 47 156 -121 c230 -178 236
-174 -325 -174 -561 0 -553 -5 -319 178 l150 116 62 -47 c34 -26 83 -47 110
-47z"/>
</g>
</svg>
