<?xml version="1.0" standalone="no"?>
<!DOCTYPE svg PUBLIC "-//W3C//DTD SVG 20010904//EN"
 "http://www.w3.org/TR/2001/REC-SVG-20010904/DTD/svg10.dtd">
<svg version="1.0" xmlns="http://www.w3.org/2000/svg"
 width="300.000000pt" height="300.000000pt" viewBox="0 0 900.000000 900.000000"
 preserveAspectRatio="xMidYMid meet">
<metadata>
Created by potrace 1.10, written by Peter Selinger 2001-2011
</metadata>
<g transform="translate(0.000000,900.000000) scale(0.100000,-0.100000)"
fill="#ffc107" stroke="none">
<path d="M4323 8988 c1 -9 -23 -15 -78 -21 -44 -5 -109 -15 -145 -23 -36 -8
-72 -14 -81 -14 -22 0 -182 -47 -289 -85 -80 -29 -213 -97 -300 -153 -108 -70
-269 -232 -338 -337 -76 -118 -85 -127 -144 -157 -173 -87 -326 -325 -385
-597 -35 -164 -43 -341 -43 -1006 l0 -649 -34 -36 c-132 -136 -138 -394 -14
-655 66 -139 173 -249 299 -308 59 -28 69 -40 69 -86 0 -15 6 -47 14 -72 8
-24 23 -73 34 -109 29 -93 108 -270 155 -345 29 -48 111 -170 116 -175 4 -3
21 -25 39 -49 l32 -45 0 -355 c0 -196 -4 -361 -8 -367 -6 -11 -87 -36 -172
-54 -19 -4 -55 -13 -80 -19 -25 -7 -70 -19 -100 -26 -30 -7 -84 -21 -120 -30
-36 -9 -91 -23 -122 -31 -32 -8 -84 -20 -115 -28 -32 -8 -87 -22 -123 -31 -36
-9 -90 -23 -120 -30 -302 -74 -422 -123 -620 -254 -128 -84 -331 -290 -416
-421 -62 -96 -164 -295 -164 -319 0 -6 -6 -25 -14 -43 -18 -43 -41 -132 -61
-236 -13 -70 -15 -206 -15 -910 0 -783 1 -828 18 -855 31 -46 53 -56 119 -57
56 0 64 3 92 31 17 17 33 40 36 52 3 12 6 378 8 812 4 809 5 839 44 985 58
217 166 409 315 560 94 96 116 113 213 178 154 101 250 139 528 208 31 8 83
20 115 28 73 18 160 40 240 60 34 9 89 23 122 31 33 8 88 22 123 31 34 8 88
22 120 30 31 8 83 20 115 28 31 8 76 20 100 26 42 11 45 10 123 -37 212 -127
457 -240 619 -286 145 -41 272 -65 425 -80 22 -3 65 -14 95 -26 30 -13 66 -26
80 -31 14 -5 50 -18 80 -30 30 -12 66 -25 80 -30 14 -5 50 -18 80 -30 30 -12
66 -25 80 -30 14 -5 50 -18 80 -30 30 -12 66 -25 80 -30 14 -5 50 -18 80 -30
30 -12 66 -25 80 -30 14 -5 50 -18 80 -30 30 -12 65 -24 78 -27 55 -13 52 42
52 -1133 0 -1033 1 -1086 18 -1113 31 -46 53 -56 117 -56 64 0 86 10 117 56
17 27 18 83 18 1204 l0 1176 -34 34 c-18 19 -55 42 -82 52 -27 10 -66 25 -86
33 -21 8 -56 21 -78 29 -22 8 -59 22 -82 31 -55 21 -113 42 -160 60 -21 8 -57
21 -80 30 -110 41 -130 62 -72 75 67 15 348 151 455 221 102 66 114 70 162 58
23 -7 68 -18 100 -26 90 -22 172 -43 235 -59 181 -46 271 -68 302 -75 19 -4
55 -13 80 -19 25 -7 71 -19 103 -27 404 -100 477 -127 645 -237 90 -59 109
-75 214 -181 146 -149 257 -348 311 -561 40 -157 41 -171 44 -980 2 -434 5
-800 8 -812 3 -12 19 -35 36 -52 28 -28 36 -31 92 -31 66 1 88 11 119 57 17
27 18 71 18 853 0 718 -2 837 -16 915 -76 418 -317 789 -664 1022 -156 105
-295 166 -490 218 -197 52 -277 72 -355 90 -38 9 -84 20 -101 25 -16 6 -50 14
-75 19 -24 5 -80 19 -124 31 -44 12 -98 26 -120 30 -168 37 -289 71 -297 84
-4 6 -8 171 -8 367 l0 357 69 93 c65 89 201 319 201 340 0 6 5 20 12 32 32 58
108 294 108 338 0 37 11 47 91 88 92 46 157 105 217 196 57 85 90 154 118 250
11 34 43 43 150 44 93 1 251 45 354 97 275 141 428 379 496 776 19 112 16 463
-5 558 -42 191 -50 219 -95 345 -120 334 -373 686 -701 974 -103 91 -346 266
-430 311 -11 6 -33 19 -50 29 -63 40 -270 142 -387 191 -68 29 -138 58 -156
66 -18 8 -39 14 -47 14 -8 0 -29 6 -47 14 -119 50 -466 127 -641 142 -45 4
-70 10 -74 20 -7 20 -614 21 -610 2z m532 -288 c319 -26 582 -85 851 -189 44
-17 84 -31 88 -31 15 0 279 -132 343 -171 35 -22 65 -39 68 -39 13 0 265 -183
340 -248 373 -322 618 -699 719 -1107 48 -197 48 -455 0 -665 -30 -128 -98
-271 -122 -256 -5 3 -12 29 -15 58 -13 114 -57 257 -120 388 -71 147 -150 255
-208 285 -61 32 -140 7 -179 -57 -28 -46 -26 -97 7 -144 15 -21 42 -61 61 -89
65 -95 124 -240 153 -375 18 -83 19 -271 2 -292 -14 -16 -185 -52 -224 -46
-18 2 -29 15 -44 53 -24 59 -64 122 -94 149 -21 19 -21 19 -21 629 0 645 -1
657 -47 726 -32 47 -29 54 20 47 23 -3 81 -8 129 -12 80 -6 89 -5 114 15 65
51 82 120 44 184 -43 73 -155 98 -443 98 l-211 0 -43 30 c-24 16 -46 29 -48
29 -2 0 -26 13 -52 28 -39 22 -181 85 -298 132 -19 7 -18 9 8 19 16 6 49 11
75 12 73 1 121 20 154 60 41 51 47 104 16 149 -55 82 -109 94 -289 65 -204
-32 -319 -65 -446 -126 -87 -41 -119 -46 -208 -28 -27 6 -198 14 -380 17 -197
4 -329 11 -329 16 3 16 161 92 262 125 84 28 100 39 123 83 33 64 17 137 -39
177 -37 26 -121 29 -184 5 -94 -35 -195 -80 -241 -106 -26 -15 -50 -28 -52
-28 -2 0 -39 -24 -82 -52 -83 -57 -212 -180 -253 -241 -26 -39 -33 -42 -190
-82 -229 -60 -462 -158 -633 -268 -78 -50 -89 -49 -72 6 12 40 57 138 90 196
27 48 102 113 165 143 59 28 75 31 170 33 115 2 152 14 189 61 16 20 21 41 21
82 0 53 -2 58 -45 99 -25 23 -45 47 -45 52 0 21 118 120 226 188 21 14 143 73
189 93 237 99 666 149 1030 120z m-40 -990 c265 -23 469 -62 680 -132 105 -35
118 -40 245 -102 142 -69 245 -140 343 -238 l87 -88 0 -320 c0 -176 -4 -320
-8 -320 -5 0 -26 9 -49 20 -109 52 -277 100 -473 134 -311 54 -586 71 -1150
71 -466 0 -707 -10 -945 -41 -301 -38 -535 -95 -678 -164 -23 -11 -44 -20 -49
-20 -4 0 -8 144 -8 321 l0 321 88 86 c117 117 260 208 467 297 72 31 311 105
340 105 10 0 41 6 69 14 72 20 238 43 401 56 77 6 160 12 185 14 65 6 315 -2
455 -14z m90 -1260 c121 -6 272 -15 335 -21 63 -6 148 -14 189 -18 60 -6 77
-11 92 -30 11 -13 19 -32 19 -42 0 -10 6 -33 14 -51 8 -18 24 -58 36 -88 29
-70 76 -166 100 -205 11 -16 23 -37 27 -45 17 -37 137 -204 170 -238 10 -10
13 -81 13 -300 0 -347 -10 -424 -89 -683 -17 -56 -121 -256 -176 -339 -199
-300 -459 -522 -780 -665 -143 -64 -390 -96 -495 -65 -19 6 -53 15 -75 20 -78
17 -257 96 -340 150 -16 11 -37 23 -45 27 -47 21 -248 185 -326 265 -217 221
-320 381 -419 648 -22 60 -43 151 -60 255 -20 133 -22 666 -2 687 42 44 166
221 194 278 4 8 18 35 33 60 14 25 41 81 59 125 18 44 39 95 47 113 8 18 14
42 14 53 0 36 44 69 92 69 24 0 104 7 178 15 285 32 816 43 1195 25z m-1775
-141 c0 -33 -130 -261 -198 -347 -18 -24 -18 -24 -70 -7 l-52 17 0 91 0 92 43
37 c23 21 47 38 53 38 5 0 15 5 22 12 17 17 154 76 180 77 12 1 22 -4 22 -10z
m2834 -23 c42 -18 82 -38 89 -45 6 -6 16 -11 22 -11 5 0 29 -17 53 -38 l42
-37 0 -92 0 -91 -52 -17 c-52 -17 -52 -17 -70 7 -68 86 -198 314 -198 347 0
19 33 12 114 -23z m-3171 -618 c15 -17 17 -42 17 -187 0 -91 -4 -172 -9 -180
-15 -23 -35 1 -75 82 -67 141 -86 267 -47 306 17 17 25 18 58 10 21 -6 46 -20
56 -31z m3517 11 c15 -27 12 -105 -6 -168 -20 -69 -79 -195 -100 -212 -28 -23
-34 9 -34 182 0 187 4 200 70 217 41 10 57 6 70 -19z m-2693 -1967 c98 -74
201 -136 323 -194 137 -65 175 -80 340 -127 l65 -19 0 -203 0 -204 -24 -3
c-34 -5 -188 34 -293 74 -102 38 -131 51 -233 101 -153 74 -271 143 -287 167
-9 13 -11 438 -2 461 9 22 20 16 111 -53z m1861 -174 c2 -224 2 -227 -20 -248
-13 -12 -32 -26 -43 -31 -11 -5 -42 -23 -70 -39 -58 -35 -252 -130 -310 -153
-22 -8 -58 -22 -80 -30 -105 -40 -262 -80 -296 -75 l-24 3 -3 185 c-1 102 0
194 2 205 4 16 22 24 83 38 226 54 461 169 658 322 39 30 77 53 85 52 13 -2
15 -36 18 -229z"/>
<path d="M3889 2093 c-43 -7 -90 -64 -96 -116 -13 -113 98 -193 197 -142 40
21 80 82 80 124 0 39 -30 92 -64 114 -26 18 -79 27 -117 20z"/>
<path d="M5002 2089 c-43 -13 -92 -80 -92 -127 0 -72 68 -142 140 -142 84 0
135 54 135 142 0 53 -3 61 -35 92 -39 39 -92 52 -148 35z"/>
<path d="M3834 1216 c-38 -33 -39 -35 -39 -101 0 -66 1 -68 39 -101 33 -29 47
-34 89 -34 28 0 61 7 79 18 34 19 68 78 68 117 0 39 -34 98 -68 118 -18 10
-51 17 -79 17 -42 0 -56 -5 -89 -34z"/>
<path d="M4976 1230 c-35 -23 -65 -74 -66 -113 0 -40 33 -99 68 -119 18 -11
50 -18 79 -18 40 0 55 6 88 34 39 33 40 35 40 101 0 66 -1 68 -39 101 -34 29
-47 34 -90 34 -34 0 -61 -7 -80 -20z"/>
<path d="M2468 962 c-20 -9 -47 -30 -60 -47 -23 -29 -23 -31 -26 -395 -2 -201
0 -385 3 -410 5 -33 16 -53 42 -77 30 -29 41 -33 90 -33 63 0 101 18 126 62
15 27 17 69 17 420 0 383 0 391 -22 426 -20 33 -84 72 -118 72 -8 -1 -32 -8
-52 -18z"/>
<path d="M6404 961 c-24 -11 -50 -33 -62 -53 -22 -35 -22 -43 -22 -426 0 -351
2 -393 17 -420 25 -44 63 -62 126 -62 49 0 60 4 90 33 26 24 37 44 42 77 3 25
5 209 3 410 -3 412 -1 399 -84 440 -49 24 -58 25 -110 1z"/>
<path d="M3853 389 c-69 -44 -83 -152 -27 -210 67 -70 170 -56 226 29 36 54
12 136 -52 182 -37 26 -105 26 -147 -1z"/>
<path d="M4978 389 c-65 -48 -85 -124 -48 -184 51 -83 158 -95 224 -26 56 59
42 167 -29 211 -43 26 -111 26 -147 -1z"/>
</g>
</svg>
