<?xml version="1.0" standalone="no"?>
<!DOCTYPE svg PUBLIC "-//W3C//DTD SVG 20010904//EN"
 "http://www.w3.org/TR/2001/REC-SVG-20010904/DTD/svg10.dtd">
<svg version="1.0" xmlns="http://www.w3.org/2000/svg"
 width="100.000000pt" height="100.000000pt" viewBox="0 0 100.000000 100.000000"
 preserveAspectRatio="xMidYMid meet">
<metadata>
Created by potrace 1.10, written by Peter Selinger 2001-2011
</metadata>
<g transform="translate(0.000000,100.000000) scale(0.100000,-0.100000)"
fill="#030b12" stroke="none">
<path d="M185 921 c-16 -10 -52 -42 -79 -70 -47 -51 -48 -54 -42 -99 24 -187
336 -539 577 -652 36 -16 85 -33 111 -36 46 -6 48 -6 103 47 65 61 89 101 81
133 -6 25 -194 156 -223 156 -10 0 -39 -11 -65 -25 -26 -14 -52 -25 -58 -25
-16 0 -228 209 -235 231 -3 10 6 40 20 68 14 28 25 57 25 66 0 18 -114 193
-138 213 -22 17 -42 15 -77 -7z"/>
</g>
</svg>
