<?xml version="1.0" encoding="UTF-8"?>
<!DOCTYPE svg PUBLIC "-//W3C//DTD SVG 1.1//EN" "http://www.w3.org/Graphics/SVG/1.1/DTD/svg11.dtd">
<svg xmlns="http://www.w3.org/2000/svg" version="1.1" width="549px" height="393px" style="shape-rendering:geometricPrecision; text-rendering:geometricPrecision; image-rendering:optimizeQuality; fill-rule:evenodd; clip-rule:evenodd" xmlns:xlink="http://www.w3.org/1999/xlink">
<g><path style="opacity:0.998" fill="#e8b98f" d="M 515.5,162.5 C 498.471,165.116 481.471,167.949 464.5,171C 455.683,180.651 446.683,190.151 437.5,199.5C 430.324,202.16 423.658,205.66 417.5,210C 412.294,209.713 407.294,208.38 402.5,206C 401.248,204.172 401.248,202.339 402.5,200.5C 412.998,197.167 423.331,193.333 433.5,189C 418.376,192.74 403.209,196.573 388,200.5C 385.739,200.561 383.739,199.894 382,198.5C 380.556,195.945 379.389,193.279 378.5,190.5C 378.76,188.813 379.427,187.313 380.5,186C 385.834,182.832 391.501,180.499 397.5,179C 411.16,176.339 424.826,174.339 438.5,173C 432.339,171.38 426.006,171.047 419.5,172C 411.423,172.749 403.423,173.916 395.5,175.5C 393.537,170.897 391.537,166.23 389.5,161.5C 400.189,160.967 410.856,160.134 421.5,159C 407.073,158.967 392.74,158.3 378.5,157C 397.693,146.477 414.526,132.977 429,116.5C 429.977,114.26 430.477,111.927 430.5,109.5C 425.911,110.553 421.578,112.386 417.5,115C 405.007,123.998 392.674,133.165 380.5,142.5C 358.042,110.937 327.376,95.2705 288.5,95.5C 299.795,86.0427 310.961,76.376 322,66.5C 328.001,58.5942 326.167,55.0942 316.5,56C 279.52,75.9657 244.187,98.1323 210.5,122.5C 204.5,125.833 198.5,129.167 192.5,132.5C 214.736,107.761 237.903,83.7613 262,60.5C 266.026,54.8452 264.526,52.3452 257.5,53C 254.391,58.4402 250.891,63.6068 247,68.5C 224.644,90.2563 202.977,112.59 182,135.5C 179.836,132.553 179.002,129.219 179.5,125.5C 175.027,112.588 169.86,99.9214 164,87.5C 145.285,72.4507 126.285,57.784 107,43.5C 106.617,44.056 106.117,44.3893 105.5,44.5C 106.543,41.9438 108.21,39.7772 110.5,38C 113.47,37.2375 115.97,35.7375 118,33.5C 118.741,34.6405 119.575,34.6405 120.5,33.5C 124.676,27.495 130.01,22.6616 136.5,19C 140.722,8.46399 148.555,2.96399 160,2.5C 163.297,2.72585 166.797,3.39251 170.5,4.5C 172.659,4.12007 174.826,3.78674 177,3.5C 181.337,4.41458 185.337,5.41458 189,6.5C 194.629,4.26563 200.462,2.76563 206.5,2C 229.5,1.33333 252.5,1.33333 275.5,2C 279.853,3.77885 283.853,6.11219 287.5,9C 293.461,11.9422 299.461,12.1088 305.5,9.5C 306.086,9.70931 306.586,10.0426 307,10.5C 315.858,8.72916 324.691,7.89583 333.5,8C 337.746,6.64312 341.746,4.80978 345.5,2.5C 348.24,2.67329 350.907,2.67329 353.5,2.5C 355.62,3.89091 357.953,4.55757 360.5,4.5C 367.077,4.04529 373.911,3.37863 381,2.5C 383.5,3 386,3.5 388.5,4C 390.808,7.14336 393.808,9.31003 397.5,10.5C 403.262,17.3604 407.428,25.0271 410,33.5C 411.5,35 413,36.5 414.5,38C 419.418,39.8797 424.751,41.3797 430.5,42.5C 430.069,43.2935 429.735,44.1268 429.5,45C 432.131,48.0939 433.798,51.5939 434.5,55.5C 439.383,55.2152 441.883,57.5485 442,62.5C 443.816,63.3295 445.649,64.1628 447.5,65C 451.224,71.0952 456.557,74.0952 463.5,74C 464.337,75.0113 464.67,76.1779 464.5,77.5C 468.81,77.4894 472.143,79.3228 474.5,83C 480.004,82.8946 485.171,84.0612 490,86.5C 490.826,84.5946 491.993,84.2612 493.5,85.5C 492.167,86.5 492.167,87.5 493.5,88.5C 496.548,88.3481 499.548,88.8481 502.5,90C 503.167,91 503.833,92 504.5,93C 503.219,97.3889 504.386,98.2223 508,95.5C 509.682,96.8646 509.849,98.3646 508.5,100C 509.833,100.333 511.167,100.667 512.5,101C 514.025,104.923 516.691,106.423 520.5,105.5C 521.795,106.098 523.128,106.598 524.5,107C 529.074,111.738 533.074,116.905 536.5,122.5C 526.328,128.339 518.994,136.672 514.5,147.5C 513.5,148 512.5,148.5 511.5,149C 512.894,149.956 513.561,151.289 513.5,153C 512.834,154.669 512.834,156.169 513.5,157.5C 513.023,158.478 512.357,159.311 511.5,160C 512.858,160.934 514.192,161.768 515.5,162.5 Z M 160.5,11.5 C 161.5,11.5 162.5,11.5 163.5,11.5C 162.754,15.31 161.754,15.31 160.5,11.5 Z"/></g>
<g><path style="opacity:1" fill="#e8b98f" d="M 177.5,125.5 C 175.033,129.858 175.033,134.358 177.5,139C 177.257,139.902 176.923,140.735 176.5,141.5C 173.269,139.78 170.436,137.447 168,134.5C 158.5,119 149,103.5 139.5,88C 125.248,81.8049 110.915,75.8049 96.5,70C 94.4453,69.3128 92.7786,68.1461 91.5,66.5C 96.3333,60.1667 101.167,53.8333 106,47.5C 106.718,46.5494 107.551,46.3828 108.5,47C 126.333,60.8333 144.167,74.6667 162,88.5C 167.27,100.817 172.437,113.15 177.5,125.5 Z"/></g>
<g><path style="opacity:0.996" fill="#de9d71" d="M 179.5,125.5 C 178.833,125.5 178.167,125.5 177.5,125.5C 172.437,113.15 167.27,100.817 162,88.5C 144.167,74.6667 126.333,60.8333 108.5,47C 107.551,46.3828 106.718,46.5494 106,47.5C 101.167,53.8333 96.3333,60.1667 91.5,66.5C 92.7786,68.1461 94.4453,69.3128 96.5,70C 110.915,75.8049 125.248,81.8049 139.5,88C 149,103.5 158.5,119 168,134.5C 170.436,137.447 173.269,139.78 176.5,141.5C 175.833,142.833 174.833,143.833 173.5,144.5C 171.275,140.765 168.442,137.432 165,134.5C 156.23,119.402 147.063,104.568 137.5,90C 120.159,81.944 102.492,74.7774 84.5,68.5C 85.3065,67.2719 86.3065,66.2719 87.5,65.5C 93.2733,58.2735 99.2733,51.2735 105.5,44.5C 106.117,44.3893 106.617,44.056 107,43.5C 126.285,57.784 145.285,72.4507 164,87.5C 169.86,99.9214 175.027,112.588 179.5,125.5 Z"/></g>
<g><path style="opacity:1" fill="#0c0907" d="M 192.5,132.5 C 190.967,134.355 189.3,136.188 187.5,138C 188.5,138.667 189.5,138.667 190.5,138C 197.416,133.055 204.083,127.889 210.5,122.5C 244.187,98.1323 279.52,75.9657 316.5,56C 326.167,55.0942 328.001,58.5942 322,66.5C 310.961,76.376 299.795,86.0427 288.5,95.5C 286.809,96.8637 285.142,98.197 283.5,99.5C 267.832,110.335 251.832,120.668 235.5,130.5C 245.077,132.978 254.744,134.978 264.5,136.5C 276.158,134.329 287.824,132.495 299.5,131C 288.744,133.619 278.077,136.619 267.5,140C 267.167,140.333 266.833,140.667 266.5,141C 269.106,142.938 270.939,145.438 272,148.5C 273.954,161.969 270.288,173.635 261,183.5C 239.816,206.334 215.316,224.667 187.5,238.5C 185.847,238.66 184.514,239.326 183.5,240.5C 159.653,250.838 134.986,258.671 109.5,264C 96.4893,267.636 84.4893,265.636 73.5,258C 68.8216,253.476 66.1549,247.976 65.5,241.5C 65.5,239.167 65.5,236.833 65.5,234.5C 65.5,233.167 65.5,231.833 65.5,230.5C 66.3382,230.158 66.6716,229.492 66.5,228.5C 71.6735,216.993 79.6735,207.993 90.5,201.5C 91.8717,200.488 93.205,199.488 94.5,198.5C 112.03,188.233 130.03,178.733 148.5,170C 152.828,166.997 154.661,162.83 154,157.5C 160.479,153.019 166.979,148.686 173.5,144.5C 174.833,143.833 175.833,142.833 176.5,141.5C 176.923,140.735 177.257,139.902 177.5,139C 175.033,134.358 175.033,129.858 177.5,125.5C 178.167,125.5 178.833,125.5 179.5,125.5C 179.002,129.219 179.836,132.553 182,135.5C 202.977,112.59 224.644,90.2563 247,68.5C 250.891,63.6068 254.391,58.4402 257.5,53C 264.526,52.3452 266.026,54.8452 262,60.5C 237.903,83.7613 214.736,107.761 192.5,132.5 Z"/></g>
<g><path style="opacity:0.306" fill="#c65a28" d="M 87.5,65.5 C 86.3065,66.2719 85.3065,67.2719 84.5,68.5C 84.1667,68.5 83.8333,68.5 83.5,68.5C 80.6863,66.904 77.6863,66.404 74.5,67C 77.3738,67.9425 80.0404,69.1092 82.5,70.5C 82.5,71.5 82.5,72.5 82.5,73.5C 82.1667,73.5 81.8333,73.5 81.5,73.5C 74.6308,70.3876 67.6308,67.8876 60.5,66C 51.375,77.4605 41.875,88.6272 32,99.5C 31.3333,108.167 31.3333,116.833 32,125.5C 34.2586,117.716 37.092,110.216 40.5,103C 50.8123,101.281 61.1457,99.7811 71.5,98.5C 71.8333,98.5 72.1667,98.5 72.5,98.5C 72.5,99.1667 72.5,99.8333 72.5,100.5C 72.5,101.167 72.1667,101.5 71.5,101.5C 62.1725,102.952 52.8391,104.452 43.5,106C 42.6919,106.308 42.0253,106.808 41.5,107.5C 39.5,113.167 37.5,118.833 35.5,124.5C 40.456,125.494 45.456,125.827 50.5,125.5C 50.5,126.5 50.5,127.5 50.5,128.5C 49.8333,128.5 49.1667,128.5 48.5,128.5C 42.8333,128.5 37.1667,128.5 31.5,128.5C 31.5,130.5 31.5,132.5 31.5,134.5C 31.5,135.167 31.1667,135.5 30.5,135.5C 29.8333,135.833 29.1667,136.167 28.5,136.5C 28.1667,136.5 27.8333,136.5 27.5,136.5C 27.038,123.401 27.538,110.401 29,97.5C 40.2853,84.4262 51.452,71.2595 62.5,58C 70.8914,60.1849 79.2248,62.6849 87.5,65.5 Z"/></g>
<g><path style="opacity:1" fill="#e1b289" d="M 264.5,106.5 C 261.393,106.351 258.393,106.851 255.5,108C 245.368,111.569 235.368,115.402 225.5,119.5C 235.703,111.144 246.37,103.31 257.5,96C 276.668,84.2482 296.001,72.7482 315.5,61.5C 316.583,62.365 316.749,63.365 316,64.5C 300.442,80.5215 283.275,94.5215 264.5,106.5 Z"/></g>
<g><path style="opacity:0.998" fill="#e8b98f" d="M 83.5,68.5 C 83.8333,68.5 84.1667,68.5 84.5,68.5C 102.492,74.7774 120.159,81.944 137.5,90C 147.063,104.568 156.23,119.402 165,134.5C 168.442,137.432 171.275,140.765 173.5,144.5C 166.979,148.686 160.479,153.019 154,157.5C 154.661,162.83 152.828,166.997 148.5,170C 130.03,178.733 112.03,188.233 94.5,198.5C 75.1682,195.777 55.8348,192.944 36.5,190C 34.0094,171.932 32.0094,153.765 30.5,135.5C 31.1667,135.5 31.5,135.167 31.5,134.5C 34.0685,134.406 35.5685,133.072 36,130.5C 37.3985,131.051 38.7318,131.384 40,131.5C 42.405,130.726 44.905,130.226 47.5,130C 48.056,129.617 48.3893,129.117 48.5,128.5C 49.1667,128.5 49.8333,128.5 50.5,128.5C 66.5035,128.333 82.5035,128.5 98.5,129C 117.132,133.825 135.799,138.325 154.5,142.5C 154.67,143.822 154.337,144.989 153.5,146C 128.501,154.668 103.834,164.168 79.5,174.5C 78.4173,175.365 78.2506,176.365 79,177.5C 103.761,166.706 128.928,156.872 154.5,148C 156.637,145.821 156.971,143.321 155.5,140.5C 137.429,136.315 119.429,131.815 101.5,127C 84.7895,126.805 68.1229,126.305 51.5,125.5C 49.4776,123.581 49.1443,121.414 50.5,119C 49.2713,117.471 47.7713,116.304 46,115.5C 46.3112,114.065 46.1445,112.732 45.5,111.5C 47.6684,109.545 50.0017,108.879 52.5,109.5C 54.5586,108.433 56.392,107.1 58,105.5C 60.9692,107.161 64.3026,107.828 68,107.5C 69.4424,105.609 70.6091,103.609 71.5,101.5C 72.1667,101.5 72.5,101.167 72.5,100.5C 84.5001,98.6614 96.5001,97.1614 108.5,96C 115.795,104.964 123.462,113.63 131.5,122C 141.167,127.167 150.833,132.333 160.5,137.5C 160.833,137.167 161.167,136.833 161.5,136.5C 159.273,131.046 156.773,125.713 154,120.5C 140.738,108.45 127.572,96.283 114.5,84C 103.942,79.7676 93.6083,75.2676 83.5,70.5C 83.5,69.8333 83.5,69.1667 83.5,68.5 Z"/></g>
<g><path style="opacity:1" fill="#de9d71" d="M 82.5,70.5 C 82.8333,70.5 83.1667,70.5 83.5,70.5C 93.6083,75.2676 103.942,79.7676 114.5,84C 127.572,96.283 140.738,108.45 154,120.5C 156.773,125.713 159.273,131.046 161.5,136.5C 161.167,136.833 160.833,137.167 160.5,137.5C 150.833,132.333 141.167,127.167 131.5,122C 123.462,113.63 115.795,104.964 108.5,96C 96.5001,97.1614 84.5001,98.6614 72.5,100.5C 72.5,99.8333 72.5,99.1667 72.5,98.5C 84.4396,96.2117 96.4396,94.3783 108.5,93C 116.5,102 124.5,111 132.5,120C 140.254,124.294 148.087,128.461 156,132.5C 155.743,128.958 154.577,125.624 152.5,122.5C 139.349,110.517 126.349,98.35 113.5,86C 103.145,81.8205 92.8121,77.6538 82.5,73.5C 82.5,72.5 82.5,71.5 82.5,70.5 Z"/></g>
<g><path style="opacity:0.995" fill="#e8b98f" d="M 81.5,73.5 C 81.8333,73.5 82.1667,73.5 82.5,73.5C 92.8121,77.6538 103.145,81.8205 113.5,86C 126.349,98.35 139.349,110.517 152.5,122.5C 154.577,125.624 155.743,128.958 156,132.5C 148.087,128.461 140.254,124.294 132.5,120C 124.5,111 116.5,102 108.5,93C 96.4396,94.3783 84.4396,96.2117 72.5,98.5C 72.1667,98.5 71.8333,98.5 71.5,98.5C 71.6896,96.3581 71.8563,94.0248 72,91.5C 73.3848,90.4495 74.3848,89.1161 75,87.5C 75.2414,84.7111 75.908,82.0444 77,79.5C 79.1267,77.8863 80.6267,75.8863 81.5,73.5 Z"/></g>
<g><path style="opacity:1" fill="#dc9c71" d="M 288.5,95.5 C 327.376,95.2705 358.042,110.937 380.5,142.5C 380.027,143.906 379.027,144.573 377.5,144.5C 355.408,110.792 324.075,95.7915 283.5,99.5C 285.142,98.197 286.809,96.8637 288.5,95.5 Z"/></g>
<g><path style="opacity:1" fill="#e6b78e" d="M 377.5,144.5 C 372.423,149.219 367.09,153.719 361.5,158C 350.5,158.333 339.5,158.667 328.5,159C 320.723,161.151 321.057,162.985 329.5,164.5C 338.085,162.634 346.751,162.134 355.5,163C 351.928,165.637 347.928,167.303 343.5,168C 341.963,170.28 340.797,172.78 340,175.5C 329.839,184.319 321.173,194.319 314,205.5C 312.279,212.616 315.112,215.95 322.5,215.5C 326.921,215.145 331.254,214.312 335.5,213C 348.397,208.218 361.064,202.885 373.5,197C 371.155,196.83 368.821,197.163 366.5,198C 354.859,203.325 342.859,207.658 330.5,211C 326.5,211.667 322.5,211.667 318.5,211C 317.446,209.612 317.28,208.112 318,206.5C 327.794,193.039 339.294,181.205 352.5,171C 363.559,162.985 375.893,159.818 389.5,161.5C 391.537,166.23 393.537,170.897 395.5,175.5C 390.477,177.35 385.477,179.517 380.5,182C 376.387,184.394 374.554,187.894 375,192.5C 376.226,195.952 377.726,199.285 379.5,202.5C 379.291,203.086 378.957,203.586 378.5,204C 370.067,205.808 362.233,208.975 355,213.5C 354.28,215.112 354.446,216.612 355.5,218C 364.85,218.72 373.85,217.22 382.5,213.5C 387.441,217.265 392.274,221.265 397,225.5C 396.333,231.167 396.333,236.833 397,242.5C 391.414,238.957 385.914,235.291 380.5,231.5C 366.05,236.445 351.383,240.445 336.5,243.5C 336.709,244.086 337.043,244.586 337.5,245C 349.674,245.169 361.674,245.669 373.5,246.5C 372.769,252.392 370.935,258.059 368,263.5C 366.513,264.741 365.68,264.241 365.5,262C 366.109,258.555 367.775,255.722 370.5,253.5C 366.6,253.186 364.1,255.186 363,259.5C 362.369,266.767 364.869,268.101 370.5,263.5C 371.281,264.737 372.281,265.737 373.5,266.5C 375.5,259.857 375.833,253.19 374.5,246.5C 383.173,246.666 391.84,246.5 400.5,246C 401.315,238.913 401.815,231.747 402,224.5C 404.039,222.126 406.372,220.126 409,218.5C 416.276,239.215 420.61,260.548 422,282.5C 431.104,299.708 439.937,317.042 448.5,334.5C 461.859,328.486 475.193,322.486 488.5,316.5C 485.689,320.159 483.022,323.993 480.5,328C 475.459,330.724 470.293,331.891 465,331.5C 461.114,336.194 456.281,339.527 450.5,341.5C 447.456,345.679 444.79,350.012 442.5,354.5C 442.167,354.5 441.833,354.5 441.5,354.5C 429.556,324.999 417.222,295.666 404.5,266.5C 407.167,265.833 407.167,265.167 404.5,264.5C 402.285,261.078 400.285,257.411 398.5,253.5C 396.814,254.857 395.148,256.19 393.5,257.5C 392.566,256.432 392.232,255.099 392.5,253.5C 393.675,253.719 394.675,253.386 395.5,252.5C 392.532,250.912 390.532,251.745 389.5,255C 391.593,258.351 393.26,261.851 394.5,265.5C 392.282,265.386 390.282,264.72 388.5,263.5C 387.604,264.506 386.938,264.506 386.5,263.5C 387.112,258.389 385.278,254.389 381,251.5C 377.621,254.785 376.621,258.785 378,263.5C 378.66,265.324 379.827,266.657 381.5,267.5C 381.489,269.017 380.823,270.184 379.5,271C 346.114,295.126 308.781,306.126 267.5,304C 228.342,297.336 201.676,275.502 187.5,238.5C 215.316,224.667 239.816,206.334 261,183.5C 270.288,173.635 273.954,161.969 272,148.5C 270.939,145.438 269.106,142.938 266.5,141C 266.833,140.667 267.167,140.333 267.5,140C 278.077,136.619 288.744,133.619 299.5,131C 287.824,132.495 276.158,134.329 264.5,136.5C 254.744,134.978 245.077,132.978 235.5,130.5C 251.832,120.668 267.832,110.335 283.5,99.5C 324.075,95.7915 355.408,110.792 377.5,144.5 Z"/></g>
<g><path style="opacity:1" fill="#d9996f" d="M 264.5,106.5 C 263.055,108.063 261.389,109.396 259.5,110.5C 259.265,109.903 258.765,109.57 258,109.5C 244.169,114.172 230.669,119.505 217.5,125.5C 219.8,123.016 222.467,121.016 225.5,119.5C 235.368,115.402 245.368,111.569 255.5,108C 258.393,106.851 261.393,106.351 264.5,106.5 Z"/></g>
<g><path style="opacity:1" fill="#100d0a" d="M 389.5,161.5 C 375.893,159.818 363.559,162.985 352.5,171C 339.294,181.205 327.794,193.039 318,206.5C 317.28,208.112 317.446,209.612 318.5,211C 322.5,211.667 326.5,211.667 330.5,211C 342.859,207.658 354.859,203.325 366.5,198C 368.821,197.163 371.155,196.83 373.5,197C 361.064,202.885 348.397,208.218 335.5,213C 331.254,214.312 326.921,215.145 322.5,215.5C 315.112,215.95 312.279,212.616 314,205.5C 321.173,194.319 329.839,184.319 340,175.5C 340.797,172.78 341.963,170.28 343.5,168C 347.928,167.303 351.928,165.637 355.5,163C 346.751,162.134 338.085,162.634 329.5,164.5C 321.057,162.985 320.723,161.151 328.5,159C 339.5,158.667 350.5,158.333 361.5,158C 367.09,153.719 372.423,149.219 377.5,144.5C 379.027,144.573 380.027,143.906 380.5,142.5C 392.674,133.165 405.007,123.998 417.5,115C 421.578,112.386 425.911,110.553 430.5,109.5C 430.477,111.927 429.977,114.26 429,116.5C 414.526,132.977 397.693,146.477 378.5,157C 392.74,158.3 407.073,158.967 421.5,159C 410.856,160.134 400.189,160.967 389.5,161.5 Z"/></g>
<g><path style="opacity:1" fill="#e1b28a" d="M 259.5,110.5 C 245.353,119.574 230.353,127.074 214.5,133C 211.833,133.667 209.167,133.667 206.5,133C 209.878,129.985 213.544,127.485 217.5,125.5C 230.669,119.505 244.169,114.172 258,109.5C 258.765,109.57 259.265,109.903 259.5,110.5 Z"/></g>
<g><path style="opacity:1" fill="#d8ac85" d="M 421.5,116.5 C 422.525,116.897 422.692,117.563 422,118.5C 406.556,134.988 388.723,147.821 368.5,157C 386.067,143.253 403.734,129.753 421.5,116.5 Z"/></g>
<g><path style="opacity:1" fill="#de9d71" d="M 50.5,125.5 C 50.8333,125.5 51.1667,125.5 51.5,125.5C 68.1229,126.305 84.7895,126.805 101.5,127C 119.429,131.815 137.429,136.315 155.5,140.5C 156.971,143.321 156.637,145.821 154.5,148C 128.928,156.872 103.761,166.706 79,177.5C 78.2506,176.365 78.4173,175.365 79.5,174.5C 103.834,164.168 128.501,154.668 153.5,146C 154.337,144.989 154.67,143.822 154.5,142.5C 135.799,138.325 117.132,133.825 98.5,129C 82.5035,128.5 66.5035,128.333 50.5,128.5C 50.5,127.5 50.5,126.5 50.5,125.5 Z"/></g>
<g><path style="opacity:1" fill="#ca8f67" d="M 210.5,122.5 C 204.083,127.889 197.416,133.055 190.5,138C 189.5,138.667 188.5,138.667 187.5,138C 189.3,136.188 190.967,134.355 192.5,132.5C 198.5,129.167 204.5,125.833 210.5,122.5 Z"/></g>
<g><path style="opacity:1" fill="#dc9c70" d="M 30.5,135.5 C 32.0094,153.765 34.0094,171.932 36.5,190C 55.8348,192.944 75.1682,195.777 94.5,198.5C 93.205,199.488 91.8717,200.488 90.5,201.5C 74.7797,198.013 58.7797,195.346 42.5,193.5C 41.5,193.833 40.5,194.167 39.5,194.5C 48.5541,205.877 57.5541,217.21 66.5,228.5C 66.6716,229.492 66.3382,230.158 65.5,230.5C 55.4463,218.754 45.613,206.754 36,194.5C 33.7733,199.954 31.2733,205.287 28.5,210.5C 40.1654,219.993 51.9987,229.327 64,238.5C 64.21,236.942 64.71,235.609 65.5,234.5C 65.5,236.833 65.5,239.167 65.5,241.5C 51.8785,231.878 38.5451,221.878 25.5,211.5C 28.8618,205.612 31.5284,199.446 33.5,193C 31.9018,174.332 30.2352,155.498 28.5,136.5C 29.1667,136.167 29.8333,135.833 30.5,135.5 Z"/></g>
<g><path style="opacity:1" fill="#deb088" d="M 225.5,136.5 C 233.507,136.334 241.507,136.5 249.5,137C 252.167,138 252.167,139 249.5,140C 223.61,145.137 198.276,151.804 173.5,160C 180.121,156.036 186.121,151.369 191.5,146C 202.975,142.891 214.308,139.724 225.5,136.5 Z"/></g>
<g><path style="opacity:0.997" fill="#e8b98f" d="M 27.5,136.5 C 27.8333,136.5 28.1667,136.5 28.5,136.5C 30.2352,155.498 31.9018,174.332 33.5,193C 31.5284,199.446 28.8618,205.612 25.5,211.5C 38.5451,221.878 51.8785,231.878 65.5,241.5C 66.1549,247.976 68.8216,253.476 73.5,258C 84.4893,265.636 96.4893,267.636 109.5,264C 134.986,258.671 159.653,250.838 183.5,240.5C 184.496,240.414 185.329,240.748 186,241.5C 206.98,289.756 243.814,311.256 296.5,306C 331.395,301.54 362.395,288.374 389.5,266.5C 395.506,268.362 397.839,266.362 396.5,260.5C 396.651,257.282 397.484,256.949 399,259.5C 412.553,290.754 426.053,323.087 439.5,356.5C 436.439,357.973 433.439,359.639 430.5,361.5C 417.179,363.129 403.846,365.629 390.5,369C 389.069,369.465 387.903,370.299 387,371.5C 386.269,373.899 385.102,376.065 383.5,378C 384.061,379.566 383.394,380.899 381.5,382C 376.039,382.011 370.872,383.177 366,385.5C 362.027,384.176 358.027,382.842 354,381.5C 345.734,386.229 338.401,385.229 332,378.5C 327.537,381.948 323.203,381.948 319,378.5C 318.25,379.126 317.416,379.626 316.5,380C 317.641,380.741 317.641,381.575 316.5,382.5C 314.531,384.421 313.031,384.421 312,382.5C 311.667,382.833 311.333,383.167 311,383.5C 309.087,381.813 306.92,381.313 304.5,382C 307.534,383.191 309.201,385.358 309.5,388.5C 278.498,388.667 247.498,388.5 216.5,388C 210.959,384.223 205.293,382.89 199.5,384C 198.833,382.667 198.167,381.333 197.5,380C 192.069,378.012 186.735,378.179 181.5,380.5C 177.287,377.689 172.787,377.023 168,378.5C 165.125,377.647 162.292,376.647 159.5,375.5C 153.418,376.431 147.918,374.431 143,369.5C 142.71,367.048 142.044,364.715 141,362.5C 137.922,359.748 134.589,357.414 131,355.5C 129.783,350.475 126.616,346.642 121.5,344C 116.5,343.667 111.5,343.333 106.5,343C 101.246,340.751 95.9127,338.751 90.5,337C 89.4258,336.261 88.7591,335.261 88.5,334C 88.3245,330.726 88.6579,327.726 89.5,325C 85.9214,322.085 81.7548,320.585 77,320.5C 76.1667,320.167 75.3333,319.833 74.5,319.5C 75.1667,319.167 75.8333,318.833 76.5,318.5C 74.1528,317.288 71.6528,316.621 69,316.5C 64.8198,317.253 60.6531,318.087 56.5,319C 57.6537,319.914 57.487,320.747 56,321.5C 55.2689,319.101 54.1022,316.935 52.5,315C 52.8333,314.667 53.1667,314.333 53.5,314C 52.0337,313.365 50.7003,312.531 49.5,311.5C 47.9017,312.485 46.235,312.651 44.5,312C 42.5391,307.246 39.7058,303.08 36,299.5C 35.6667,299.833 35.3333,300.167 35,300.5C 33.3687,296.879 31.0354,293.879 28,291.5C 26.9096,288.421 27.7429,286.088 30.5,284.5C 30.5696,280.467 28.9029,276.967 25.5,274C 28.0387,272.901 28.7054,271.234 27.5,269C 22.7751,267.569 18.4418,265.403 14.5,262.5C 14.468,258.436 14.468,254.436 14.5,250.5C 12.6412,250.539 11.3079,249.706 10.5,248C 12.3611,242.911 16.0278,239.911 21.5,239C 18.8333,237.667 18.8333,236.333 21.5,235C 21.1667,234.667 20.8333,234.333 20.5,234C 22.9602,233.604 24.9602,232.437 26.5,230.5C 27.1924,231.025 27.6924,231.692 28,232.5C 28.7412,231.359 29.5745,231.359 30.5,232.5C 32.5912,231.17 34.5912,229.836 36.5,228.5C 36.0814,227.328 35.4147,226.328 34.5,225.5C 32.1967,226.953 30.0301,227.953 28,228.5C 26.8289,227.107 25.3289,226.273 23.5,226C 16.8943,226.649 10.561,225.483 4.5,222.5C 3.16667,209.833 3.16667,197.167 4.5,184.5C 6.38877,182.568 8.38877,180.735 10.5,179C 13.6484,177.924 16.6484,176.591 19.5,175C 19.4624,171.912 18.4624,168.912 16.5,166C 17.1667,164.333 17.8333,162.667 18.5,161C 15.7669,159.269 13.7669,156.936 12.5,154C 18.3867,148.945 23.3867,143.112 27.5,136.5 Z"/></g>
<g><path style="opacity:1" fill="#e7b88e" d="M 186.5,233.5 C 184.369,230.671 182.869,227.338 182,223.5C 179.47,207.696 174.636,192.696 167.5,178.5C 143.292,205.054 118.959,231.554 94.5,258C 93.8333,258.667 93.1667,258.667 92.5,258C 87.1667,252.667 81.8333,247.333 76.5,242C 81.5729,237.483 86.5729,232.983 91.5,228.5C 92.552,228.649 93.552,228.483 94.5,228C 111.776,214.505 128.11,199.838 143.5,184C 159.422,170.374 177.756,161.54 198.5,157.5C 199.675,157.281 200.675,157.614 201.5,158.5C 191.009,162.442 180.342,165.775 169.5,168.5C 169.178,170.722 169.845,172.556 171.5,174C 181.261,181.626 191.094,189.126 201,196.5C 216.463,190.434 231.796,184.101 247,177.5C 249.44,165.801 251.94,154.134 254.5,142.5C 256.455,141.677 258.455,141.51 260.5,142C 266.162,148.098 267.995,155.264 266,163.5C 261.349,175.944 253.849,186.444 243.5,195C 226.24,210.429 207.24,223.263 186.5,233.5 Z"/></g>
<g><path style="opacity:1" fill="#e7b88f" d="M 249.5,143.5 C 250.586,143.62 251.253,144.287 251.5,145.5C 249.366,155.895 247.033,166.229 244.5,176.5C 231.874,181.764 219.207,186.931 206.5,192C 204.246,193.15 201.913,193.484 199.5,193C 190.316,185.906 181.316,178.573 172.5,171C 182.974,167.009 193.641,163.509 204.5,160.5C 203.929,158.64 203.929,156.973 204.5,155.5C 219.156,150.283 234.156,146.283 249.5,143.5 Z"/></g>
<g><path style="opacity:1" fill="#dc9c70" d="M 249.5,143.5 C 250.919,142.549 252.585,142.216 254.5,142.5C 251.94,154.134 249.44,165.801 247,177.5C 231.796,184.101 216.463,190.434 201,196.5C 191.094,189.126 181.261,181.626 171.5,174C 169.845,172.556 169.178,170.722 169.5,168.5C 180.342,165.775 191.009,162.442 201.5,158.5C 200.675,157.614 199.675,157.281 198.5,157.5C 200.302,156.542 202.302,155.875 204.5,155.5C 203.929,156.973 203.929,158.64 204.5,160.5C 193.641,163.509 182.974,167.009 172.5,171C 181.316,178.573 190.316,185.906 199.5,193C 201.913,193.484 204.246,193.15 206.5,192C 219.207,186.931 231.874,181.764 244.5,176.5C 247.033,166.229 249.366,155.895 251.5,145.5C 251.253,144.287 250.586,143.62 249.5,143.5 Z"/></g>
<g><path style="opacity:1" fill="#130f0c" d="M 326.5,150.5 C 329.95,149.756 331.616,151.09 331.5,154.5C 328.05,155.244 326.384,153.91 326.5,150.5 Z"/></g>
<g><path style="opacity:0.303" fill="#c75a29" d="M 548.5,204.5 C 548.5,215.167 548.5,225.833 548.5,236.5C 547.167,239.833 547.167,243.167 548.5,246.5C 548.5,247.833 548.5,249.167 548.5,250.5C 547.883,250.389 547.383,250.056 547,249.5C 546.011,260.255 544.511,270.922 542.5,281.5C 542.977,282.478 543.643,283.311 544.5,284C 542.383,287.547 540.883,291.38 540,295.5C 531.421,306.991 523.088,318.657 515,330.5C 508.468,336.698 502.301,343.198 496.5,350C 479.792,357.069 463.126,364.236 446.5,371.5C 443.969,366.565 441.636,361.565 439.5,356.5C 440.5,356.167 441.167,355.5 441.5,354.5C 441.833,354.5 442.167,354.5 442.5,354.5C 443.89,358.948 446.057,362.948 449,366.5C 464.225,360.138 479.391,353.638 494.5,347C 510.472,330.533 524.638,312.699 537,293.5C 538.252,290.986 538.752,288.32 538.5,285.5C 537.167,285.5 535.833,285.5 534.5,285.5C 534.5,285.167 534.5,284.833 534.5,284.5C 534.5,283.833 534.5,283.167 534.5,282.5C 535.167,282.167 535.833,281.833 536.5,281.5C 538.698,281.591 539.031,280.925 537.5,279.5C 537.5,279.167 537.5,278.833 537.5,278.5C 538.404,277.791 538.737,276.791 538.5,275.5C 539.222,275.918 539.722,276.584 540,277.5C 540.502,274.487 541.002,271.487 541.5,268.5C 542.388,265.946 542.721,263.279 542.5,260.5C 543.634,256.164 543.634,251.831 542.5,247.5C 538.265,245.215 533.931,243.215 529.5,241.5C 529.167,240.833 528.833,240.167 528.5,239.5C 527.4,238.395 526.733,237.062 526.5,235.5C 531.892,238.549 537.225,240.882 542.5,242.5C 539.524,233.881 535.524,225.881 530.5,218.5C 530.5,217.833 530.5,217.167 530.5,216.5C 531.167,216.167 531.833,215.833 532.5,215.5C 532.833,215.5 533.167,215.5 533.5,215.5C 537.514,222.195 541.014,229.195 544,236.5C 545.946,227.171 546.446,217.838 545.5,208.5C 545.663,206.143 545.497,203.81 545,201.5C 544.617,200.944 544.117,200.611 543.5,200.5C 542.343,197.016 541.01,193.683 539.5,190.5C 539.5,189.833 539.5,189.167 539.5,188.5C 539.672,187.508 539.338,186.842 538.5,186.5C 538.5,186.167 538.5,185.833 538.5,185.5C 536.692,177.979 536.025,170.312 536.5,162.5C 535.5,162.5 534.5,162.5 533.5,162.5C 529.742,162.848 526.076,163.515 522.5,164.5C 520.5,163.833 518.5,163.167 516.5,162.5C 523.949,160.647 531.615,159.313 539.5,158.5C 539.334,165.175 539.5,171.842 540,178.5C 542.57,187.374 545.403,196.04 548.5,204.5 Z"/></g>
<g><path style="opacity:0.993" fill="#e8b98f" d="M 533.5,162.5 C 535.012,166.13 534.345,169.297 531.5,172C 533.203,173.37 534.536,175.036 535.5,177C 533.672,180.861 534.672,183.694 538.5,185.5C 538.5,185.833 538.5,186.167 538.5,186.5C 538.328,187.492 538.662,188.158 539.5,188.5C 539.5,189.167 539.5,189.833 539.5,190.5C 539.896,193.044 539.229,195.211 537.5,197C 538.743,199.455 540.743,200.622 543.5,200.5C 544.117,200.611 544.617,200.944 545,201.5C 545.497,203.81 545.663,206.143 545.5,208.5C 540.84,209.826 536.84,212.159 533.5,215.5C 533.167,215.5 532.833,215.5 532.5,215.5C 526.011,204.528 519.511,193.528 513,182.5C 504.544,180.776 496.044,179.109 487.5,177.5C 472.837,184.007 458.171,190.174 443.5,196C 451.198,188.636 458.531,180.97 465.5,173C 484.511,170.097 503.511,167.263 522.5,164.5C 526.076,163.515 529.742,162.848 533.5,162.5 Z"/></g>
<g><path style="opacity:1" fill="#14100d" d="M 303.5,169.5 C 304.5,169.5 305.5,169.5 306.5,169.5C 306.509,171.308 306.009,172.975 305,174.5C 293.484,182.008 283.15,191.008 274,201.5C 272.441,203.217 271.608,205.217 271.5,207.5C 275.964,207.402 280.297,206.569 284.5,205C 295.955,200.962 307.289,196.962 318.5,193C 302.468,203.677 284.968,209.511 266,210.5C 265.333,208.833 265.333,207.167 266,205.5C 268,202.833 270,200.167 272,197.5C 282.099,187.559 292.599,178.225 303.5,169.5 Z"/></g>
<g><path style="opacity:1" fill="#14100d" d="M 402.5,200.5 C 400.421,200.971 398.421,201.637 396.5,202.5C 390.725,202.943 387.058,205.943 385.5,211.5C 383.973,211.427 382.973,212.094 382.5,213.5C 373.85,217.22 364.85,218.72 355.5,218C 354.446,216.612 354.28,215.112 355,213.5C 362.233,208.975 370.067,205.808 378.5,204C 378.957,203.586 379.291,203.086 379.5,202.5C 377.726,199.285 376.226,195.952 375,192.5C 374.554,187.894 376.387,184.394 380.5,182C 385.477,179.517 390.477,177.35 395.5,175.5C 403.423,173.916 411.423,172.749 419.5,172C 426.006,171.047 432.339,171.38 438.5,173C 424.826,174.339 411.16,176.339 397.5,179C 391.501,180.499 385.834,182.832 380.5,186C 379.427,187.313 378.76,188.813 378.5,190.5C 379.389,193.279 380.556,195.945 382,198.5C 383.739,199.894 385.739,200.561 388,200.5C 403.209,196.573 418.376,192.74 433.5,189C 423.331,193.333 412.998,197.167 402.5,200.5 Z"/></g>
<g><path style="opacity:0.998" fill="#e8b98f" d="M 530.5,216.5 C 530.5,217.167 530.5,217.833 530.5,218.5C 526.779,220.898 524.112,224.232 522.5,228.5C 523.592,231.024 524.926,233.357 526.5,235.5C 511.746,228.958 497.079,222.124 482.5,215C 466.484,212.093 450.484,209.093 434.5,206C 436.167,204.333 437.833,202.667 439.5,201C 455.624,193.603 471.957,186.769 488.5,180.5C 495.844,181.602 503.178,182.769 510.5,184C 517.554,194.61 524.221,205.444 530.5,216.5 Z"/></g>
<g><path style="opacity:1" fill="#e8b98f" d="M 183.5,235.5 C 157.532,248.267 130.198,256.6 101.5,260.5C 99.8008,260.66 98.1341,260.494 96.5,260C 119.677,233.992 143.01,208.158 166.5,182.5C 169.532,187.901 172.032,193.568 174,199.5C 176.235,211.777 179.402,223.777 183.5,235.5 Z"/></g>
<g><path style="opacity:1" fill="#e7b88e" d="M 90.5,201.5 C 79.6735,207.993 71.6735,216.993 66.5,228.5C 57.5541,217.21 48.5541,205.877 39.5,194.5C 40.5,194.167 41.5,193.833 42.5,193.5C 58.7797,195.346 74.7797,198.013 90.5,201.5 Z"/></g>
<g><path style="opacity:1" fill="#e8b98f" d="M 65.5,230.5 C 65.5,231.833 65.5,233.167 65.5,234.5C 64.71,235.609 64.21,236.942 64,238.5C 51.9987,229.327 40.1654,219.993 28.5,210.5C 31.2733,205.287 33.7733,199.954 36,194.5C 45.613,206.754 55.4463,218.754 65.5,230.5 Z"/></g>
<g><path style="opacity:1" fill="#e1b38a" d="M 88.5,226.5 C 88.631,227.239 88.4643,227.906 88,228.5C 83.6667,232.167 79.3333,235.833 75,239.5C 74.6174,238.944 74.1174,238.611 73.5,238.5C 73.2804,232.378 74.7804,226.712 78,221.5C 89.9315,208.803 103.765,198.969 119.5,192C 110.054,199.478 100.888,207.311 92,215.5C 90.6667,217.5 89.3333,219.5 88,221.5C 87.3603,223.265 87.5269,224.932 88.5,226.5 Z"/></g>
<g><path style="opacity:1" fill="#e5b68c" d="M 396.5,202.5 C 397.657,204.138 398.824,205.804 400,207.5C 400.947,213.343 400.614,219.01 399,224.5C 394.521,220.036 390.021,215.702 385.5,211.5C 387.058,205.943 390.725,202.943 396.5,202.5 Z"/></g>
<g><path style="opacity:1" fill="#cba07b" d="M 377.5,207.5 C 382.371,207.578 382.371,208.745 377.5,211C 372.619,212.961 367.619,213.961 362.5,214C 367.59,211.782 372.59,209.616 377.5,207.5 Z"/></g>
<g><path style="opacity:1" fill="#de9c71" d="M 515.5,162.5 C 515.833,162.5 516.167,162.5 516.5,162.5C 518.5,163.167 520.5,163.833 522.5,164.5C 503.511,167.263 484.511,170.097 465.5,173C 458.531,180.97 451.198,188.636 443.5,196C 458.171,190.174 472.837,184.007 487.5,177.5C 496.044,179.109 504.544,180.776 513,182.5C 519.511,193.528 526.011,204.528 532.5,215.5C 531.833,215.833 531.167,216.167 530.5,216.5C 524.221,205.444 517.554,194.61 510.5,184C 503.178,182.769 495.844,181.602 488.5,180.5C 471.957,186.769 455.624,193.603 439.5,201C 437.833,202.667 436.167,204.333 434.5,206C 450.484,209.093 466.484,212.093 482.5,215C 497.079,222.124 511.746,228.958 526.5,235.5C 526.733,237.062 527.4,238.395 528.5,239.5C 522.823,237.245 517.323,234.578 512,231.5C 520.03,246.543 528.863,261.21 538.5,275.5C 538.737,276.791 538.404,277.791 537.5,278.5C 528.066,263.815 518.733,248.982 509.5,234C 484.94,225.693 460.273,217.693 435.5,210C 433.559,209.257 431.726,209.424 430,210.5C 430.135,215.19 430.802,219.856 432,224.5C 436.799,241.361 441.132,258.361 445,275.5C 449.709,283.085 454.542,290.585 459.5,298C 468.652,302.159 477.985,305.493 487.5,308C 484.458,305.158 481.458,302.324 478.5,299.5C 484.033,293.802 490.033,288.635 496.5,284C 501.138,279.89 503.471,274.724 503.5,268.5C 502.554,262.159 500.888,255.992 498.5,250C 498.833,249.5 499.167,249 499.5,248.5C 506.137,259.135 506.97,270.135 502,281.5C 495.667,287.167 489.333,292.833 483,298.5C 483.546,301.093 485.046,303.26 487.5,305C 489.977,306.643 492.31,308.476 494.5,310.5C 505.978,301.523 517.311,292.356 528.5,283C 530.473,282.505 532.473,282.338 534.5,282.5C 534.5,283.167 534.5,283.833 534.5,284.5C 532.801,284.34 531.134,284.506 529.5,285C 518.652,293.395 508.318,302.229 498.5,311.5C 498.167,311.5 497.833,311.5 497.5,311.5C 494.812,311.166 492.479,311.832 490.5,313.5C 490.5,314.5 490.5,315.5 490.5,316.5C 489.833,316.5 489.167,316.5 488.5,316.5C 475.193,322.486 461.859,328.486 448.5,334.5C 439.937,317.042 431.104,299.708 422,282.5C 420.61,260.548 416.276,239.215 409,218.5C 406.372,220.126 404.039,222.126 402,224.5C 401.815,231.747 401.315,238.913 400.5,246C 391.84,246.5 383.173,246.666 374.5,246.5C 374.167,246.5 373.833,246.5 373.5,246.5C 361.674,245.669 349.674,245.169 337.5,245C 337.043,244.586 336.709,244.086 336.5,243.5C 351.383,240.445 366.05,236.445 380.5,231.5C 385.914,235.291 391.414,238.957 397,242.5C 396.333,236.833 396.333,231.167 397,225.5C 392.274,221.265 387.441,217.265 382.5,213.5C 382.973,212.094 383.973,211.427 385.5,211.5C 390.021,215.702 394.521,220.036 399,224.5C 400.614,219.01 400.947,213.343 400,207.5C 398.824,205.804 397.657,204.138 396.5,202.5C 398.421,201.637 400.421,200.971 402.5,200.5C 401.248,202.339 401.248,204.172 402.5,206C 407.294,208.38 412.294,209.713 417.5,210C 423.658,205.66 430.324,202.16 437.5,199.5C 446.683,190.151 455.683,180.651 464.5,171C 481.471,167.949 498.471,165.116 515.5,162.5 Z"/></g>
<g><path style="opacity:1" fill="#e8b88e" d="M 402.5,209.5 C 405.945,210.093 409.279,211.093 412.5,212.5C 409.505,215.325 406.338,217.992 403,220.5C 402.501,216.848 402.335,213.182 402.5,209.5 Z"/></g>
<g><path style="opacity:1" fill="#e8b98f" d="M 537.5,278.5 C 537.5,278.833 537.5,279.167 537.5,279.5C 536.662,279.842 536.328,280.508 536.5,281.5C 535.833,281.833 535.167,282.167 534.5,282.5C 532.473,282.338 530.473,282.505 528.5,283C 517.311,292.356 505.978,301.523 494.5,310.5C 492.31,308.476 489.977,306.643 487.5,305C 485.046,303.26 483.546,301.093 483,298.5C 489.333,292.833 495.667,287.167 502,281.5C 506.97,270.135 506.137,259.135 499.5,248.5C 499.167,249 498.833,249.5 498.5,250C 500.888,255.992 502.554,262.159 503.5,268.5C 503.471,274.724 501.138,279.89 496.5,284C 490.033,288.635 484.033,293.802 478.5,299.5C 481.458,302.324 484.458,305.158 487.5,308C 477.985,305.493 468.652,302.159 459.5,298C 454.542,290.585 449.709,283.085 445,275.5C 441.132,258.361 436.799,241.361 432,224.5C 430.802,219.856 430.135,215.19 430,210.5C 431.726,209.424 433.559,209.257 435.5,210C 460.273,217.693 484.94,225.693 509.5,234C 518.733,248.982 528.066,263.815 537.5,278.5 Z"/></g>
<g><path style="opacity:1" fill="#e8b98f" d="M 490.5,313.5 C 476.738,319.213 463.071,325.213 449.5,331.5C 441.271,314.708 432.771,298.042 424,281.5C 422.949,259.673 418.782,238.506 411.5,218C 413.023,216.146 414.856,214.646 417,213.5C 420.44,215.939 423.773,215.939 427,213.5C 432.491,234.462 437.824,255.462 443,276.5C 447.918,284 452.584,291.667 457,299.5C 468.291,304.09 479.457,308.757 490.5,313.5 Z"/></g>
<g><path style="opacity:1" fill="#e7b68b" d="M 449.5,212.5 C 469.685,213.122 488.685,218.622 506.5,229C 505.167,229.667 503.833,229.667 502.5,229C 484.895,223.187 467.229,217.687 449.5,212.5 Z"/></g>
<g><path style="opacity:0.98" fill="#e8b98f" d="M 528.5,239.5 C 528.833,240.167 529.167,240.833 529.5,241.5C 528.286,242.626 527.286,243.959 526.5,245.5C 529.238,250.996 533.571,254.663 539.5,256.5C 540.035,258.261 541.035,259.594 542.5,260.5C 542.721,263.279 542.388,265.946 541.5,268.5C 539.935,270.509 538.935,272.843 538.5,275.5C 528.863,261.21 520.03,246.543 512,231.5C 517.323,234.578 522.823,237.245 528.5,239.5 Z"/></g>
<g><path style="opacity:1" fill="#e8b88d" d="M 377.5,234.5 C 379.655,234.372 381.655,234.872 383.5,236C 387.5,238.667 391.5,241.333 395.5,244C 381.413,244.662 367.413,243.995 353.5,242C 361.789,240.1 369.789,237.6 377.5,234.5 Z"/></g>
<g><path style="opacity:1" fill="#dc9f74" d="M 186.5,233.5 C 185.71,234.401 184.71,235.068 183.5,235.5C 179.402,223.777 176.235,211.777 174,199.5C 172.032,193.568 169.532,187.901 166.5,182.5C 143.01,208.158 119.677,233.992 96.5,260C 98.1341,260.494 99.8008,260.66 101.5,260.5C 90.1311,262.404 81.2978,258.404 75,248.5C 73.8011,245.274 73.3011,241.941 73.5,238.5C 74.1174,238.611 74.6174,238.944 75,239.5C 79.3333,235.833 83.6667,232.167 88,228.5C 88.4643,227.906 88.631,227.239 88.5,226.5C 89.5,227.167 90.5,227.833 91.5,228.5C 86.5729,232.983 81.5729,237.483 76.5,242C 81.8333,247.333 87.1667,252.667 92.5,258C 93.1667,258.667 93.8333,258.667 94.5,258C 118.959,231.554 143.292,205.054 167.5,178.5C 174.636,192.696 179.47,207.696 182,223.5C 182.869,227.338 184.369,230.671 186.5,233.5 Z"/></g>
<g><path style="opacity:1" fill="#dd9c71" d="M 187.5,238.5 C 201.676,275.502 228.342,297.336 267.5,304C 308.781,306.126 346.114,295.126 379.5,271C 380.823,270.184 381.489,269.017 381.5,267.5C 383.775,266.889 385.441,265.555 386.5,263.5C 386.938,264.506 387.604,264.506 388.5,263.5C 388.557,264.609 388.89,265.609 389.5,266.5C 362.395,288.374 331.395,301.54 296.5,306C 243.814,311.256 206.98,289.756 186,241.5C 185.329,240.748 184.496,240.414 183.5,240.5C 184.514,239.326 185.847,238.66 187.5,238.5 Z"/></g>
<g><path style="opacity:1" fill="#130f0c" d="M 206.5,243.5 C 208.199,243.34 209.866,243.506 211.5,244C 210.522,250.41 210.189,256.91 210.5,263.5C 212.39,263.703 213.89,263.037 215,261.5C 217.736,256.624 218.07,251.624 216,246.5C 211.27,244.138 211.437,243.304 216.5,244C 217.667,245.167 218.833,246.333 220,247.5C 222.536,257.772 218.869,264.439 209,267.5C 208.167,267.167 207.333,266.833 206.5,266.5C 207.63,259.55 207.797,252.55 207,245.5C 205.401,247.036 203.567,247.536 201.5,247C 203.233,245.811 204.9,244.644 206.5,243.5 Z"/></g>
<g><path style="opacity:1" fill="#14100c" d="M 238.5,245.5 C 239.117,245.611 239.617,245.944 240,246.5C 240.435,253.553 239.935,260.553 238.5,267.5C 237.204,260.11 237.204,252.776 238.5,245.5 Z"/></g>
<g><path style="opacity:1" fill="#171310" d="M 373.5,246.5 C 373.833,246.5 374.167,246.5 374.5,246.5C 375.833,253.19 375.5,259.857 373.5,266.5C 372.281,265.737 371.281,264.737 370.5,263.5C 364.869,268.101 362.369,266.767 363,259.5C 364.1,255.186 366.6,253.186 370.5,253.5C 367.775,255.722 366.109,258.555 365.5,262C 365.68,264.241 366.513,264.741 368,263.5C 370.935,258.059 372.769,252.392 373.5,246.5 Z"/></g>
<g><path style="opacity:1" fill="#16120f" d="M 269.5,251.5 C 271.288,251.215 272.955,251.548 274.5,252.5C 273.311,253.429 271.978,253.762 270.5,253.5C 271.196,256.554 272.696,259.22 275,261.5C 276.052,265.293 274.552,267.293 270.5,267.5C 267.719,267.099 266.719,265.765 267.5,263.5C 268.842,265.005 270.508,265.672 272.5,265.5C 272.657,264.127 272.49,262.793 272,261.5C 267.747,258.751 266.914,255.417 269.5,251.5 Z"/></g>
<g><path style="opacity:1" fill="#1d1814" d="M 245.5,251.5 C 246.675,251.281 247.675,251.614 248.5,252.5C 245.55,256.094 244.883,260.094 246.5,264.5C 248.483,263.018 250.316,261.351 252,259.5C 251.954,263.065 250.12,265.399 246.5,266.5C 243.406,265.326 242.072,262.993 242.5,259.5C 242.4,256.376 243.4,253.71 245.5,251.5 Z"/></g>
<g><path style="opacity:1" fill="#14100d" d="M 258.5,252.5 C 260.199,252.34 261.866,252.506 263.5,253C 264.059,253.725 264.392,254.558 264.5,255.5C 263.611,257.898 262.111,259.898 260,261.5C 258.991,263.025 258.491,264.692 258.5,266.5C 259.552,266.351 260.552,266.517 261.5,267C 256.655,267.491 254.322,265.158 254.5,260C 254.927,256.977 256.261,254.477 258.5,252.5 Z"/></g>
<g><path style="opacity:1" fill="#191411" d="M 303.5,251.5 C 306.127,251.293 307.793,252.46 308.5,255C 307.454,258.051 305.621,260.551 303,262.5C 302.51,263.793 302.343,265.127 302.5,266.5C 303.552,266.351 304.552,266.517 305.5,267C 300.504,267.841 298.171,265.674 298.5,260.5C 298.377,256.405 300.044,253.405 303.5,251.5 Z"/></g>
<g><path style="opacity:1" fill="#15120e" d="M 314.5,251.5 C 315.675,251.281 316.675,251.614 317.5,252.5C 313.829,255.283 312.662,258.95 314,263.5C 314.718,264.451 315.551,264.617 316.5,264C 317.304,262.229 318.471,260.729 320,259.5C 320.783,263.229 319.283,265.563 315.5,266.5C 312.14,265.467 310.473,263.134 310.5,259.5C 311.293,256.58 312.626,253.914 314.5,251.5 Z"/></g>
<g><path style="opacity:1" fill="#191511" d="M 342.5,251.5 C 345.261,250.915 346.927,251.915 347.5,254.5C 346.421,257.648 344.588,260.315 342,262.5C 341.51,263.793 341.343,265.127 341.5,266.5C 342.552,266.351 343.552,266.517 344.5,267C 339.422,268.257 337.089,266.257 337.5,261C 337.228,256.706 338.895,253.54 342.5,251.5 Z"/></g>
<g><path style="opacity:1" fill="#17130f" d="M 349.5,252.5 C 351.044,252.703 352.378,253.37 353.5,254.5C 355.737,252.183 358.07,252.017 360.5,254C 357.993,254.093 355.826,254.926 354,256.5C 352.154,259.569 351.154,262.902 351,266.5C 349.563,262.028 349.063,257.361 349.5,252.5 Z"/></g>
<g><path style="opacity:1" fill="#0f0c09" d="M 386.5,263.5 C 385.441,265.555 383.775,266.889 381.5,267.5C 379.827,266.657 378.66,265.324 378,263.5C 376.621,258.785 377.621,254.785 381,251.5C 385.278,254.389 387.112,258.389 386.5,263.5 Z"/></g>
<g><path style="opacity:1" fill="#251f19" d="M 285.5,252.5 C 287.017,252.511 288.184,253.177 289,254.5C 291.123,252.328 293.289,252.161 295.5,254C 292.724,254.066 290.558,255.232 289,257.5C 288.899,260.7 288.232,263.7 287,266.5C 285.563,262.028 285.063,257.361 285.5,252.5 Z"/></g>
<g><path style="opacity:1" fill="#191511" d="M 224.5,252.5 C 226.118,256.084 227.118,260.084 227.5,264.5C 229.5,260.833 231.5,257.167 233.5,253.5C 233.833,255.333 234.167,257.167 234.5,259C 234.695,261.793 234.029,264.293 232.5,266.5C 229.827,266.17 227.161,265.837 224.5,265.5C 223.233,261.168 223.233,256.835 224.5,252.5 Z"/></g>
<g><path style="opacity:1" fill="#cea57f" d="M 260.5,253.5 C 261.497,253.47 262.164,253.97 262.5,255C 261.584,257.817 259.917,258.983 257.5,258.5C 258.763,256.971 259.763,255.305 260.5,253.5 Z"/></g>
<g><path style="opacity:1" fill="#cda37e" d="M 304.5,253.5 C 305.376,253.369 306.043,253.702 306.5,254.5C 305.577,256.924 304.077,258.924 302,260.5C 301.683,257.793 302.516,255.46 304.5,253.5 Z"/></g>
<g><path style="opacity:1" fill="#191511" d="M 325.5,252.5 C 326.166,256.353 326.833,260.353 327.5,264.5C 329.75,260.332 332.25,256.332 335,252.5C 334.995,257.046 334.495,261.546 333.5,266C 330.512,265.934 327.512,265.767 324.5,265.5C 322.926,260.923 323.259,256.59 325.5,252.5 Z"/></g>
<g><path style="opacity:1" fill="#cca37e" d="M 343.5,253.5 C 344.376,253.369 345.043,253.702 345.5,254.5C 344.457,257.924 342.457,259.591 339.5,259.5C 340.467,257.21 341.8,255.21 343.5,253.5 Z"/></g>
<g><path style="opacity:1" fill="#d2a882" d="M 380.5,255.5 C 381.5,255.5 382.5,255.5 383.5,255.5C 383.905,259.048 383.405,262.381 382,265.5C 379.236,262.577 378.736,259.244 380.5,255.5 Z"/></g>
<g><path style="opacity:1" fill="#14100c" d="M 393.5,257.5 C 394.167,258.833 395.167,259.833 396.5,260.5C 397.839,266.362 395.506,268.362 389.5,266.5C 388.89,265.609 388.557,264.609 388.5,263.5C 390.282,264.72 392.282,265.386 394.5,265.5C 393.26,261.851 391.593,258.351 389.5,255C 390.532,251.745 392.532,250.912 395.5,252.5C 394.675,253.386 393.675,253.719 392.5,253.5C 392.232,255.099 392.566,256.432 393.5,257.5 Z"/></g>
<g><path style="opacity:1" fill="#dc9c70" d="M 404.5,264.5 C 404.5,265.167 404.5,265.833 404.5,266.5C 417.222,295.666 429.556,324.999 441.5,354.5C 441.167,355.5 440.5,356.167 439.5,356.5C 426.053,323.087 412.553,290.754 399,259.5C 397.484,256.949 396.651,257.282 396.5,260.5C 395.167,259.833 394.167,258.833 393.5,257.5C 395.148,256.19 396.814,254.857 398.5,253.5C 400.285,257.411 402.285,261.078 404.5,264.5 Z"/></g>
<g><path style="opacity:1" fill="#27201a" d="M 404.5,264.5 C 407.167,265.167 407.167,265.833 404.5,266.5C 404.5,265.833 404.5,265.167 404.5,264.5 Z"/></g>
<g><path style="opacity:0.917" fill="#e8b98f" d="M 534.5,284.5 C 534.5,284.833 534.5,285.167 534.5,285.5C 530.722,289.229 526.389,292.229 521.5,294.5C 520.833,296.5 520.167,298.5 519.5,300.5C 516.713,302.447 514.046,304.614 511.5,307C 506.953,307.943 502.62,309.443 498.5,311.5C 508.318,302.229 518.652,293.395 529.5,285C 531.134,284.506 532.801,284.34 534.5,284.5 Z"/></g>
<g><path style="opacity:0.324" fill="#ca5928" d="M 497.5,311.5 C 495.733,313.89 493.4,315.557 490.5,316.5C 490.5,315.5 490.5,314.5 490.5,313.5C 492.479,311.832 494.812,311.166 497.5,311.5 Z"/></g>
<g><path style="opacity:0.024" fill="#d3aa7e" d="M 313.5,387.5 C 312.833,386.167 312.833,386.167 313.5,387.5 Z"/></g>
<g><path style="opacity:0.114" fill="#e5bd9c" d="M 313.5,387.5 C 314.79,385.86 316.457,385.36 318.5,386C 317.338,386.827 316.171,387.66 315,388.5C 314.235,388.43 313.735,388.097 313.5,387.5 Z"/></g>
</svg>
