<?xml version="1.0" standalone="no"?>
<!DOCTYPE svg PUBLIC "-//W3C//DTD SVG 20010904//EN"
 "http://www.w3.org/TR/2001/REC-SVG-20010904/DTD/svg10.dtd">
<svg version="1.0" xmlns="http://www.w3.org/2000/svg"
 width="549.000000pt" height="393.000000pt" viewBox="0 0 549.000000 393.000000"
 preserveAspectRatio="xMidYMid meet">
<metadata>
Created by potrace 1.16, written by Peter Selinger 2001-2019
</metadata>
<g transform="translate(0.000000,393.000000) scale(0.100000,-0.100000)"
fill="#000000" stroke="none">
<path d="M2572 3388 c-5 -7 -17 -29 -27 -48 -10 -19 -81 -100 -159 -180 -78
-80 -233 -243 -345 -362 -113 -120 -210 -218 -217 -218 -15 0 -24 23 -24 61 0
36 -14 37 -36 4 -13 -20 -14 -31 -5 -56 6 -18 11 -42 11 -54 0 -31 -49 -77
-124 -116 -87 -45 -106 -65 -106 -110 0 -52 -31 -75 -235 -174 -466 -227 -647
-393 -649 -595 -1 -119 62 -201 191 -250 50 -19 70 -21 144 -16 162 12 270 36
483 107 300 101 486 191 731 354 216 144 422 341 485 465 59 116 60 222 5 289
l-25 29 67 21 c111 35 125 39 183 51 62 12 99 30 64 30 -11 0 -85 -13 -162
-30 -78 -16 -154 -30 -169 -30 -16 0 -73 11 -128 25 -55 14 -115 25 -132 25
-18 0 -33 4 -33 9 0 6 46 36 103 67 125 71 339 213 444 296 117 92 299 255
328 292 42 55 29 96 -30 96 -67 0 -809 -447 -878 -529 -14 -17 -32 -31 -40
-31 -15 0 -131 -78 -288 -195 -101 -75 -135 -90 -88 -37 105 115 377 401 541
568 194 197 221 233 182 248 -25 10 -51 7 -62 -6z m581 -119 c-21 -37 -158
-154 -338 -289 -188 -140 -262 -188 -430 -278 -152 -82 -243 -116 -292 -110
-27 3 -27 4 22 37 28 19 109 78 180 131 179 134 435 302 564 373 30 16 104 60
165 98 61 38 119 69 129 69 17 0 17 -1 0 -31z m-664 -715 c47 -10 38 -21 -26
-34 -162 -32 -583 -148 -708 -195 -11 -4 3 9 32 29 29 20 57 45 63 56 15 27
76 57 157 76 37 8 83 22 102 30 74 31 300 54 380 38z m128 -59 c35 -25 56 -96
51 -169 -10 -121 -86 -223 -310 -417 -141 -123 -344 -251 -568 -358 -289 -138
-712 -255 -846 -234 -46 7 -120 42 -153 74 -52 49 -67 159 -35 253 30 87 172
214 359 321 28 15 60 35 72 43 53 34 15 -2 -89 -86 -119 -94 -191 -165 -210
-207 -15 -34 6 -75 38 -75 36 0 164 104 364 295 227 218 262 246 364 294 160
76 737 249 936 280 3 1 15 -6 27 -14z"/>
<path d="M458 3139 l-178 -211 0 -185 c0 -165 2 -184 16 -179 9 3 18 6 20 6 2
0 4 16 4 35 l0 34 93 3 c110 4 124 22 19 26 -52 2 -73 6 -69 15 2 7 16 49 31
95 22 64 32 83 49 87 12 3 80 14 152 25 71 12 131 23 134 26 2 2 0 9 -7 16 -8
8 -49 5 -159 -12 -81 -13 -152 -27 -158 -32 -5 -5 -27 -57 -47 -116 l-36 -107
-1 128 -1 128 128 151 c70 83 136 162 147 175 l21 25 94 -37 c52 -21 101 -40
108 -42 7 -3 12 3 12 14 0 13 -13 24 -42 35 -39 15 -40 17 -15 17 16 1 37 -4
48 -9 14 -8 25 -7 41 4 l21 15 -27 11 c-15 5 -33 10 -39 10 -7 0 -44 12 -82
26 -39 14 -77 28 -85 30 -10 3 -78 -71 -192 -207z"/>
<path d="M4234 2807 c-96 -55 -235 -158 -503 -371 l-120 -96 -138 -1 c-137 0
-226 -9 -241 -23 -4 -4 2 -14 13 -23 15 -11 35 -13 80 -9 223 23 280 17 178
-19 -70 -24 -78 -30 -81 -54 -2 -13 -57 -78 -122 -146 -78 -82 -127 -143 -145
-179 -26 -54 -27 -57 -11 -81 22 -33 61 -48 106 -40 65 11 224 67 332 116 59
27 111 49 115 49 5 0 17 8 28 16 19 15 18 16 -13 9 -19 -4 -89 -29 -156 -55
-68 -27 -153 -58 -190 -69 -72 -22 -171 -28 -181 -11 -13 20 38 102 114 182
118 126 216 205 316 254 l90 44 230 10 c127 6 244 13 260 17 l30 6 -25 9 c-14
6 -82 7 -160 4 -74 -3 -160 -2 -190 2 l-55 7 75 45 c138 83 394 301 426 361
20 39 18 69 -3 69 -10 0 -36 -11 -59 -23z m-39 -98 c-105 -108 -313 -262 -445
-329 -37 -19 -42 -20 -30 -5 22 26 489 375 503 375 6 0 -7 -18 -28 -41z"/>
<path d="M5263 2322 c-125 -21 -121 -37 7 -28 l100 6 0 -82 c0 -63 7 -104 31
-182 18 -56 39 -109 48 -120 13 -15 16 -42 14 -160 -1 -77 -6 -154 -10 -170
-8 -27 -10 -25 -46 55 -43 96 -69 135 -85 125 -7 -4 9 -47 43 -119 81 -171 82
-166 -15 -117 l-82 41 17 -29 c12 -19 42 -41 87 -62 l69 -33 -6 -91 c-5 -84
-31 -230 -35 -196 -1 9 -5 6 -11 -8 -5 -13 -7 -28 -3 -33 3 -5 -1 -9 -9 -9 -8
0 -18 -7 -21 -16 -9 -23 -8 -24 14 -24 26 0 27 -44 2 -82 -80 -124 -277 -380
-349 -454 -75 -78 -98 -95 -158 -120 -38 -15 -137 -56 -219 -91 -82 -35 -152
-63 -156 -63 -4 0 -19 27 -34 61 -14 33 -30 57 -36 54 -15 -9 -13 -22 18 -97
15 -37 32 -66 37 -64 6 3 118 50 250 105 220 92 244 105 285 149 94 99 156
172 201 234 144 199 209 297 209 314 0 10 6 31 14 46 8 14 10 30 6 35 -4 4 0
64 11 133 10 69 19 142 19 163 0 21 3 36 8 34 4 -3 8 95 10 216 l3 222 -46
143 c-40 128 -45 153 -45 238 0 109 15 101 -137 76z"/>
<path d="M2965 2168 c-118 -94 -293 -270 -301 -302 -11 -44 1 -56 53 -56 84 0
382 112 453 170 22 18 17 18 -45 -6 -143 -54 -321 -113 -362 -119 -36 -6 -43
-4 -43 10 0 23 180 201 273 269 60 44 77 62 77 81 0 14 -3 25 -8 25 -4 0 -48
-32 -97 -72z"/>
<path d="M4195 2209 c-167 -20 -327 -66 -396 -112 -50 -34 -57 -72 -25 -142
14 -31 24 -61 21 -65 -2 -4 -32 -15 -66 -24 -76 -22 -149 -53 -171 -73 -14
-12 -15 -20 -7 -35 10 -18 19 -20 88 -16 104 7 185 39 236 94 36 39 55 49 170
87 319 107 403 155 129 74 -82 -25 -186 -53 -232 -62 -80 -17 -83 -17 -103 1
-12 10 -28 34 -36 52 -12 30 -12 37 2 58 17 26 69 56 130 73 69 20 241 50 322
56 117 9 147 15 136 26 -15 15 -108 19 -198 8z"/>
<path d="M2095 1491 c-41 -10 -83 -33 -68 -38 7 -3 21 1 32 7 20 10 21 8 21
-80 0 -50 -5 -100 -10 -110 -16 -31 6 -34 58 -8 85 42 117 149 60 204 -28 27
-54 34 -93 25z"/>
</g>
</svg>
