<?xml version="1.0" standalone="no"?>
<!DOCTYPE svg PUBLIC "-//W3C//DTD SVG 20010904//EN"
 "http://www.w3.org/TR/2001/REC-SVG-20010904/DTD/svg10.dtd">
<svg version="1.0" xmlns="http://www.w3.org/2000/svg"
 width="300.000000pt" height="300.000000pt" viewBox="0 0 300.000000 300.000000"
 preserveAspectRatio="xMidYMid meet">
<metadata>
Created by potrace 1.10, written by Peter Selinger 2001-2011
</metadata>
<g transform="translate(0.000000,300.000000) scale(0.100000,-0.100000)"
fill="#000000" stroke="none">
<path d="M1455 2990 c-222 -35 -261 -341 -55 -437 l60 -28 0 -297 0 -298 -170
0 c-155 0 -170 2 -170 17 0 58 35 243 46 243 19 0 73 49 89 81 9 17 15 56 15
98 0 64 -3 73 -31 106 -17 19 -40 35 -50 35 -13 0 -19 7 -19 22 0 39 -48 106
-98 135 l-47 28 -242 3 c-156 2 -256 -1 -283 -8 -57 -15 -116 -72 -137 -130
-12 -34 -24 -50 -44 -57 -93 -35 -91 -236 3 -293 18 -11 36 -21 41 -22 6 -2
46 -218 47 -252 0 -5 -38 -6 -85 -4 -109 6 -119 -2 -105 -87 20 -120 88 -212
202 -272 l53 -28 492 -3 493 -3 2 -569 3 -570 -181 0 -181 0 7 43 c4 23 13 80
20 127 11 81 13 86 43 101 53 26 77 72 77 144 0 168 -111 343 -265 419 -44 21
-55 32 -69 71 -44 114 -186 140 -266 49 -17 -20 -33 -49 -37 -65 -4 -23 -16
-34 -57 -52 -62 -29 -154 -111 -194 -175 -66 -102 -94 -261 -59 -329 18 -33
62 -73 82 -73 7 0 16 -37 25 -102 7 -57 16 -115 21 -130 l8 -28 -209 0 c-243
0 -235 4 -220 -97 15 -113 87 -210 193 -263 59 -29 137 -41 137 -20 0 7 393
10 1160 10 767 0 1160 -3 1160 -10 0 -21 78 -9 137 20 106 53 178 150 193 263
15 100 21 97 -206 97 -171 0 -195 2 -190 15 3 8 11 53 18 100 9 66 16 86 30
91 36 11 78 56 88 95 23 86 -43 191 -128 205 -36 6 -40 9 -32 25 26 48 -4 138
-54 160 -20 10 -23 17 -19 48 6 45 -27 99 -74 121 -21 9 -33 22 -33 35 0 53
-68 115 -125 115 -21 0 -29 -8 -42 -37 -17 -43 -36 -59 -77 -67 -68 -14 -121
-85 -109 -147 3 -19 -3 -28 -26 -41 -47 -26 -73 -74 -68 -128 2 -25 7 -52 11
-61 6 -13 -1 -18 -33 -23 -76 -12 -131 -80 -131 -163 0 -59 27 -107 74 -129
32 -16 34 -21 46 -93 6 -42 14 -86 17 -98 l5 -23 -198 0 -199 0 3 570 2 569
493 3 492 3 63 34 c111 60 179 159 195 283 9 65 -4 73 -110 69 l-86 -2 6 38
c4 21 12 75 18 121 11 75 15 85 39 97 37 19 76 67 90 111 24 72 -16 176 -80
209 -21 11 -32 27 -41 57 -29 111 -111 207 -217 256 -48 23 -70 27 -147 27
-77 0 -99 -4 -147 -27 -32 -15 -73 -39 -93 -54 -48 -36 -110 -132 -126 -194
-7 -27 -16 -50 -21 -50 -20 0 -79 -66 -94 -105 -32 -84 0 -183 73 -222 34 -18
36 -23 53 -138 6 -38 13 -82 16 -97 l6 -28 -191 0 -191 0 0 298 0 297 60 28
c122 57 171 197 110 317 -47 91 -144 137 -255 120z m127 -86 c71 -36 102 -157
56 -223 -39 -58 -72 -76 -138 -76 -44 0 -66 5 -87 21 -47 35 -73 82 -73 131 0
130 125 206 242 147z m807 -165 c70 -35 133 -105 152 -170 7 -21 10 -40 8 -42
-2 -1 -27 -21 -56 -45 -28 -23 -60 -42 -70 -42 -11 0 -32 13 -48 30 -52 54
-128 75 -178 49 -12 -7 -39 -27 -60 -45 -20 -19 -46 -34 -56 -34 -11 0 -40 18
-65 39 -25 21 -50 41 -57 43 -23 8 40 125 93 173 60 54 113 73 204 74 60 1 80
-4 133 -30z m-1328 -158 c69 -68 78 -66 -298 -64 -186 2 -339 3 -341 3 -12 0
39 66 63 81 27 17 54 19 284 19 l253 0 39 -39z m914 -162 c31 -29 56 -42 84
-46 56 -8 79 0 135 47 26 22 54 40 62 40 8 0 31 -15 51 -34 51 -44 75 -56 118
-56 43 0 67 12 118 56 20 19 42 34 48 34 6 0 26 -15 45 -34 28 -28 34 -42 34
-76 0 -55 -30 -96 -78 -110 -32 -9 -44 -7 -86 15 l-48 25 -33 -20 c-42 -26
-104 -26 -138 0 -31 25 -36 25 -67 0 -33 -26 -94 -26 -136 1 l-34 21 -35 -22
c-42 -26 -96 -28 -131 -5 -33 21 -57 78 -49 116 6 27 65 89 86 89 5 0 29 -18
54 -41z m-785 6 c8 -10 11 -35 8 -72 -6 -65 -30 -93 -82 -93 -43 0 -63 17 -78
65 -10 32 -18 41 -40 43 -23 3 -28 -2 -37 -34 -15 -53 -38 -74 -81 -74 -43 0
-66 21 -81 74 -9 32 -14 37 -37 34 -22 -2 -30 -11 -40 -43 -15 -48 -35 -65
-78 -65 -41 0 -71 26 -82 70 -7 30 -12 35 -37 35 -25 0 -30 -5 -36 -35 -14
-66 -88 -93 -136 -48 -19 18 -23 32 -23 83 0 34 3 65 7 68 3 4 194 7 423 7
359 0 419 -2 430 -15z m-575 -241 c45 -8 84 2 119 30 28 22 30 22 47 5 31 -31
93 -44 140 -30 22 7 48 20 57 29 16 17 19 16 50 -4 18 -13 37 -24 42 -26 8 -3
0 -71 -25 -225 l-6 -33 -277 0 -278 0 -20 130 c-15 99 -17 130 -7 130 6 0 24
11 40 24 l28 24 28 -24 c15 -13 43 -26 62 -30z m1468 -9 c46 -19 87 -19 135 0
34 14 42 14 75 0 44 -18 80 -19 129 -1 32 11 44 11 82 -1 41 -14 45 -18 40
-42 -3 -14 -11 -64 -17 -111 l-12 -85 -261 -3 -261 -2 -12 87 c-7 48 -15 99
-18 114 -4 24 -1 28 39 41 23 9 44 16 44 17 1 0 18 -6 37 -14z m621 -342 c-20
-81 -86 -161 -163 -197 -46 -21 -48 -21 -1041 -21 -1102 0 -1022 -5 -1109 64
-38 30 -83 104 -95 154 l-6 27 1210 0 1210 0 -6 -27z m-1877 -526 c32 -32 37
-67 14 -104 -51 -81 -174 -32 -157 62 13 69 93 92 143 42z m1483 2 c6 -11 8
-34 5 -50 -8 -36 8 -59 40 -59 60 0 87 -42 58 -91 -22 -37 -10 -61 37 -70 62
-13 80 -72 34 -108 -25 -20 -40 -21 -221 -21 l-195 0 -29 29 c-53 54 -28 119
51 130 57 8 72 32 42 64 -41 44 -23 83 51 107 44 14 97 56 97 76 0 21 18 17
30 -7z m-1648 -178 c28 -29 59 -41 109 -41 49 0 88 19 124 62 l27 32 43 -23
c97 -52 180 -164 204 -279 16 -76 14 -98 -12 -128 -45 -52 -127 -24 -127 42 0
26 -30 47 -54 38 -9 -3 -19 -18 -22 -33 -8 -40 -18 -55 -47 -69 -22 -11 -32
-11 -54 0 -29 14 -39 29 -47 69 -3 15 -13 30 -22 33 -22 8 -54 -11 -54 -34 0
-32 -11 -50 -42 -66 -24 -12 -33 -13 -55 -2 -24 11 -34 26 -63 88 -4 8 -15 15
-25 15 -10 0 -21 -7 -25 -15 -29 -62 -39 -77 -63 -88 -22 -11 -31 -10 -57 3
-36 19 -45 48 -36 123 14 117 99 242 206 303 41 23 46 24 57 10 7 -9 23 -27
35 -40z m1358 -236 c11 -13 8 -15 -14 -15 -16 0 -26 5 -26 15 0 8 6 15 14 15
7 0 19 -7 26 -15z m528 -3 c2 -7 -7 -12 -23 -12 -24 0 -26 2 -15 15 14 17 31
16 38 -3z m50 -63 c83 -29 80 -159 -4 -159 -41 0 -63 18 -74 60 -12 46 -46 63
-67 34 -7 -10 -13 -26 -13 -36 0 -28 -37 -58 -70 -58 -36 0 -70 31 -70 64 0
13 -7 29 -15 36 -24 20 -52 2 -67 -43 -9 -30 -20 -44 -40 -51 -41 -14 -81 3
-91 39 -14 46 -23 60 -39 63 -22 4 -48 -25 -48 -53 0 -29 -34 -55 -71 -55 -30
0 -69 40 -69 71 0 34 24 72 55 85 39 17 635 20 683 3z m-1941 -174 c38 0 59 6
82 22 l30 23 37 -25 c48 -33 100 -33 148 0 l37 25 26 -20 c14 -11 32 -20 40
-20 9 0 12 -7 8 -22 -5 -22 -35 -222 -35 -233 0 -3 -118 -4 -262 -3 l-262 3
-13 95 c-7 52 -15 110 -18 128 -4 22 -2 32 7 32 7 0 24 9 38 19 24 19 25 19
55 -2 21 -16 45 -22 82 -22z m1416 -37 c42 -30 116 -30 157 0 l30 23 30 -23
c42 -31 118 -30 161 1 28 21 32 21 48 7 10 -9 23 -16 29 -16 21 0 22 -19 5
-114 l-17 -96 -256 0 -257 0 -11 78 c-7 42 -15 87 -18 99 -5 18 -1 25 19 32
14 5 28 15 32 20 9 15 13 14 48 -11z m847 -313 c-1 -64 -87 -171 -169 -209
l-46 -21 -1200 0 c-974 0 -1207 3 -1238 13 -86 31 -187 147 -187 216 l0 21
1420 0 c1413 0 1420 0 1420 -20z"/>
</g>
</svg>
