<?xml version="1.0" standalone="no"?>
<!DOCTYPE svg PUBLIC "-//W3C//DTD SVG 20010904//EN"
 "http://www.w3.org/TR/2001/REC-SVG-20010904/DTD/svg10.dtd">
<svg version="1.0" xmlns="http://www.w3.org/2000/svg"
 width="300.000000pt" height="300.000000pt" viewBox="0 0 900.000000 900.000000"
 preserveAspectRatio="xMidYMid meet">
<metadata>
Created by potrace 1.10, written by Peter Selinger 2001-2011
</metadata>
<g transform="translate(0.000000,900.000000) scale(0.100000,-0.100000)"
fill="#000000" stroke="none">
<path d="M4115 8250 c-311 -47 -608 -148 -826 -279 -19 -12 -41 -24 -49 -28
-27 -12 -173 -115 -245 -172 -105 -83 -261 -243 -349 -360 -210 -278 -343
-579 -420 -951 -50 -242 -51 -256 -51 -830 l0 -546 33 -66 c19 -36 50 -82 70
-101 44 -42 128 -86 180 -94 60 -9 62 -15 62 -232 1 -127 5 -215 14 -251 34
-142 150 -264 296 -310 25 -8 105 -17 179 -20 l133 -5 35 -65 c19 -36 46 -79
59 -97 13 -17 24 -35 24 -39 0 -9 109 -144 158 -196 l35 -37 -20 -38 c-26 -53
-92 -171 -118 -213 -12 -19 -25 -42 -28 -50 -4 -8 -23 -42 -42 -75 -19 -33
-39 -70 -45 -82 -12 -30 -22 -34 -103 -44 -261 -34 -365 -58 -552 -127 -82
-30 -230 -99 -280 -131 -59 -37 -78 -49 -95 -57 -8 -4 -60 -41 -115 -82 -110
-82 -293 -261 -370 -362 -27 -36 -53 -69 -57 -75 -91 -115 -227 -352 -303
-530 -78 -180 -126 -323 -175 -525 -45 -184 -52 -225 -54 -314 -1 -91 0 -96
27 -124 15 -16 45 -34 66 -41 55 -16 6547 -16 6602 0 21 7 51 25 66 41 27 28
28 34 27 116 -1 48 -9 123 -18 167 -24 109 -57 245 -66 270 -4 11 -15 47 -25
80 -89 303 -264 659 -423 860 -4 6 -30 39 -57 75 -120 158 -404 410 -525 466
-8 4 -22 13 -30 20 -39 33 -276 142 -355 163 -16 5 -41 13 -55 19 -66 27 -252
67 -385 83 -55 6 -111 14 -125 18 -22 7 -52 48 -96 136 -8 17 -21 39 -27 50
-18 30 -72 125 -94 165 -11 19 -35 61 -53 93 -32 58 -33 59 -14 82 63 77 179
228 188 244 6 11 27 47 47 80 34 54 108 203 139 276 51 123 102 324 121 480 7
55 16 108 21 118 8 15 28 17 208 17 223 0 246 5 333 69 62 46 110 119 131 201
15 58 17 114 13 535 -3 347 -8 503 -20 595 -23 184 -53 338 -83 425 -8 23 -14
48 -14 57 0 10 -6 32 -14 50 -8 18 -21 51 -29 73 -44 116 -121 285 -160 350
-210 347 -425 564 -775 782 -80 49 -258 132 -382 178 -133 48 -330 95 -502
120 -146 21 -494 18 -643 -5z m553 -270 c181 -20 381 -66 512 -118 14 -6 50
-20 80 -32 85 -34 223 -105 287 -148 171 -113 194 -132 328 -267 97 -96 217
-240 239 -285 7 -16 17 -33 57 -95 14 -22 40 -71 58 -110 18 -38 37 -78 42
-87 15 -30 64 -172 92 -268 44 -152 86 -395 70 -411 -15 -15 -344 -13 -354 2
-4 7 -12 48 -18 93 -30 210 -74 401 -117 504 -8 18 -14 37 -14 43 0 5 -23 58
-50 117 -135 284 -340 501 -595 626 -185 90 -366 140 -605 165 -247 26 -569 1
-756 -59 -305 -98 -520 -248 -705 -495 -168 -222 -279 -516 -335 -885 -10 -63
-19 -116 -20 -118 -5 -8 -378 -2 -386 6 -11 11 6 186 22 227 5 14 10 37 10 50
0 12 7 47 16 76 8 30 22 79 31 109 18 65 42 129 90 240 63 146 181 334 287
455 202 232 400 375 721 520 34 16 183 65 265 88 208 57 521 81 748 57z m128
-565 c225 -52 316 -89 459 -184 144 -95 292 -271 372 -441 46 -100 85 -203
106 -285 57 -218 83 -414 57 -430 -5 -3 -10 -19 -10 -34 0 -51 -19 -57 -128
-37 -228 43 -499 130 -671 215 -59 30 -101 52 -131 69 -19 12 -53 30 -75 42
-108 59 -272 179 -393 288 -145 129 -292 174 -444 137 -228 -57 -412 -145
-598 -286 -41 -31 -86 -68 -99 -83 -14 -14 -31 -26 -39 -26 -25 0 3 171 44
268 8 18 14 37 14 42 0 9 60 134 83 175 76 130 243 308 366 389 158 105 361
183 516 200 96 10 503 -3 571 -19z m-638 -981 c27 -21 84 -67 128 -102 43 -35
89 -72 102 -83 12 -10 25 -19 28 -19 2 0 28 -17 57 -39 49 -36 83 -57 195
-123 46 -27 249 -128 307 -153 225 -97 475 -166 745 -207 l85 -13 0 -250 c0
-322 -18 -518 -71 -790 -16 -76 -24 -108 -60 -235 -71 -246 -203 -479 -359
-635 -70 -70 -192 -165 -212 -165 -4 0 -14 -6 -22 -13 -17 -14 -137 -65 -206
-87 -156 -51 -463 -67 -630 -34 -258 51 -448 149 -624 323 -83 82 -151 167
-151 190 0 8 78 11 245 11 l245 0 30 -49 c33 -54 110 -117 180 -147 39 -17 69
-19 265 -19 l220 0 65 33 c106 54 168 126 202 232 54 169 -25 356 -187 441
-67 35 -127 44 -305 44 -180 0 -237 -8 -310 -47 -50 -26 -118 -96 -146 -149
-12 -26 -30 -49 -39 -53 -9 -3 -149 -6 -311 -6 -293 0 -294 0 -308 23 -8 12
-17 36 -21 52 -3 17 -12 55 -20 85 -32 133 -71 339 -89 480 -33 251 -38 316
-43 591 l-5 286 23 41 c159 273 436 501 734 601 87 29 94 30 157 27 49 -2 63
-7 106 -42z m-1308 -585 c8 -13 12 -142 13 -387 l2 -367 -183 0 -184 0 -24 28
-24 28 0 344 c0 189 3 350 6 359 5 14 32 16 195 16 180 0 189 -1 199 -21z
m3588 9 c9 -9 12 -101 12 -352 0 -188 -3 -351 -6 -363 -12 -42 -60 -54 -216
-51 l-143 3 4 375 c2 228 7 380 13 388 14 17 319 17 336 0z m-3539 -1055 c5
-10 14 -45 20 -78 34 -176 60 -289 82 -350 22 -62 22 -64 -4 -76 -41 -19 -129
12 -164 58 l-28 36 -3 193 c-3 129 0 199 7 213 15 27 76 30 90 4z m1734 -571
c35 -33 41 -67 20 -102 -28 -48 -75 -60 -230 -60 -119 0 -140 3 -168 20 -58
36 -55 126 5 158 18 9 68 12 187 10 154 -3 163 -4 186 -26z m-353 -1516 c0
-10 -40 -62 -88 -115 -49 -53 -146 -161 -217 -241 -71 -80 -135 -149 -143
-154 -21 -12 -8 -34 -182 299 -26 50 -73 140 -105 200 -97 182 -115 219 -114
235 0 8 14 38 30 65 16 28 32 57 36 65 8 17 89 158 103 180 6 8 13 22 17 30 3
8 15 28 26 44 l20 28 308 -308 c186 -186 309 -316 309 -328z m1074 581 c9 -18
21 -39 26 -47 17 -26 96 -164 103 -180 4 -8 20 -37 36 -65 16 -27 30 -57 30
-65 1 -16 -17 -53 -114 -235 -32 -60 -84 -159 -116 -220 -31 -60 -77 -148
-102 -195 -24 -46 -49 -86 -55 -88 -6 -2 -31 18 -55 45 -290 320 -407 455
-407 470 0 28 611 635 626 622 7 -5 19 -24 28 -42z m-601 -106 c8 -1 -254
-261 -264 -261 -7 0 -253 246 -256 258 -2 5 484 8 520 3z m-1538 -463 c27 -54
77 -151 180 -343 32 -60 76 -144 98 -185 22 -41 68 -131 104 -199 35 -67 86
-157 113 -200 27 -42 68 -107 92 -144 24 -38 50 -79 58 -92 8 -13 35 -56 60
-95 25 -39 52 -82 60 -94 8 -13 35 -56 60 -95 25 -40 52 -83 60 -95 8 -13 35
-56 59 -95 24 -39 47 -74 52 -77 5 -3 9 -12 9 -20 0 -12 -189 -14 -1410 -14
l-1410 0 0 32 c0 17 7 59 16 92 44 174 84 308 96 321 4 5 8 17 8 26 0 31 132
318 180 394 11 17 23 37 26 45 4 8 29 49 57 90 177 266 424 488 690 618 211
105 475 179 639 181 l77 1 26 -52z m2792 36 c525 -105 893 -350 1193 -792 28
-40 50 -74 50 -76 0 -3 20 -39 45 -80 25 -42 45 -79 45 -81 0 -3 19 -44 41
-92 23 -49 45 -99 50 -113 4 -14 17 -50 29 -80 12 -30 25 -68 30 -85 5 -16 13
-43 18 -60 32 -92 72 -256 72 -293 l0 -32 -1410 0 c-1221 0 -1410 2 -1410 14
0 8 4 17 9 20 5 3 28 38 52 77 24 39 51 82 59 95 8 12 35 55 60 95 25 39 52
82 60 95 8 12 35 55 60 94 25 39 52 82 60 95 8 13 34 54 58 92 24 37 65 102
92 144 27 43 78 134 115 204 36 69 80 154 99 188 18 34 58 109 89 167 30 58
76 146 102 195 27 50 64 120 82 158 l35 67 69 0 c37 0 103 -7 146 -16z m-1495
-278 c7 -7 45 -48 83 -91 39 -43 75 -83 81 -89 8 -9 169 -190 301 -338 38 -44
38 -44 -28 -148 -99 -156 -144 -227 -194 -305 -96 -149 -134 -210 -190 -302
-38 -61 -63 -93 -75 -93 -12 0 -37 32 -75 93 -56 92 -94 153 -190 302 -50 78
-95 149 -194 305 -67 105 -66 102 -19 157 22 27 44 50 47 53 3 3 55 61 116
130 60 69 132 150 161 180 28 30 69 75 90 100 57 66 63 69 86 46z"/>
<path d="M6301 2395 c-65 -29 -89 -79 -77 -160 7 -46 32 -74 83 -95 113 -44
227 93 163 197 -37 62 -107 86 -169 58z"/>
<path d="M6690 2126 c-46 -16 -100 -87 -100 -129 0 -43 19 -70 121 -168 97
-95 157 -183 210 -306 44 -102 68 -123 150 -123 49 0 58 3 87 33 45 46 55 89
37 146 -20 65 -38 111 -57 146 -9 17 -22 41 -30 55 -72 135 -251 320 -337 349
-40 13 -36 13 -81 -3z"/>
</g>
</svg>
