<?xml version="1.0" standalone="no"?>
<!DOCTYPE svg PUBLIC "-//W3C//DTD SVG 20010904//EN"
 "http://www.w3.org/TR/2001/REC-SVG-20010904/DTD/svg10.dtd">
<svg version="1.0" xmlns="http://www.w3.org/2000/svg"
 width="300.000000pt" height="300.000000pt" viewBox="0 0 512.000000 512.000000"
 preserveAspectRatio="xMidYMid meet">

<g transform="translate(0.000000,512.000000) scale(0.100000,-0.100000)"
fill="#000000" stroke="none">
<path d="M2192 4667 c-7 -8 -13 -67 -14 -137 l-3 -123 -85 -23 c-443 -118
-821 -389 -1079 -774 -376 -561 -424 -1271 -127 -1875 107 -217 218 -367 397
-540 264 -253 598 -424 959 -489 l85 -16 120 -125 c66 -69 127 -125 135 -125
8 0 69 56 135 125 l120 125 109 21 c621 117 1154 556 1389 1144 90 226 126
402 134 650 20 667 -296 1274 -854 1639 -299 196 -665 306 -1015 306 l-93 0
-133 115 c-130 113 -158 128 -180 102z m421 -421 l287 -250 0 -168 c0 -92 -3
-168 -7 -167 -5 0 -147 122 -318 272 l-310 272 -3 174 -2 173 32 -27 c18 -15
162 -141 321 -279z m257 98 c297 -46 601 -180 845 -373 72 -57 226 -214 290
-296 407 -518 498 -1213 239 -1825 -91 -217 -210 -389 -398 -575 -147 -147
-277 -240 -460 -332 -106 -53 -327 -133 -410 -147 l-39 -7 22 27 c20 26 21 36
21 323 l0 297 68 29 c764 330 966 1310 395 1916 -109 116 -261 220 -405 279
l-58 24 0 172 0 172 -93 84 c-51 46 -136 121 -190 167 -53 46 -97 86 -97 89 0
7 163 -7 270 -24z m-690 -342 l0 -318 -67 -28 c-433 -178 -723 -618 -723
-1096 0 -321 121 -612 350 -841 107 -107 205 -175 344 -240 l96 -44 0 -294 0
-295 28 -29 27 -29 -40 7 c-77 14 -301 93 -406 143 -203 98 -425 267 -570 435
-486 566 -584 1342 -250 2001 226 448 621 778 1101 920 47 14 91 25 98 25 9 1
12 -69 12 -317z m438 -212 l282 -245 0 -322 0 -323 -85 0 -85 0 -235 205 -235
206 0 395 0 396 39 -34 c21 -18 165 -143 319 -278z m533 -277 c273 -161 470
-448 525 -766 21 -122 14 -339 -15 -450 -89 -339 -320 -616 -626 -752 l-55
-24 0 1039 0 1039 48 -21 c26 -11 81 -40 123 -65z m-971 -958 l0 -1035 -57 26
c-305 134 -534 410 -625 754 -29 109 -36 327 -14 444 69 361 269 634 591 803
44 23 86 43 93 43 9 0 12 -213 12 -1035z m273 481 c81 -70 147 -130 147 -132
0 -2 -76 -4 -170 -4 l-170 0 0 151 0 150 23 -18 c13 -10 89 -76 170 -147z
m447 -411 l0 -195 -320 0 -320 0 0 195 0 195 320 0 320 0 0 -195z m0 -592 l0
-318 -282 -245 c-154 -135 -298 -260 -319 -278 l-39 -34 0 596 0 596 320 0
320 0 0 -317z m0 -653 l0 -221 -130 113 -130 112 47 41 c27 23 82 71 123 108
41 36 78 66 83 66 4 1 7 -98 7 -219z m-160 -188 l155 -138 3 -90 3 -89 -157
-165 c-87 -91 -160 -165 -164 -165 -4 0 -77 74 -164 165 l-157 165 3 90 3 89
155 138 c85 75 157 137 160 137 3 0 75 -62 160 -137z"/>
<path d="M3718 3689 c-30 -17 -20 -45 39 -113 57 -67 96 -85 109 -51 11 28 -5
59 -59 118 -57 60 -62 62 -89 46z"/>
<path d="M3993 3253 c-4 -9 1 -37 11 -62 81 -212 110 -330 126 -514 23 -270
-37 -575 -165 -826 -29 -58 -31 -74 -10 -91 30 -25 56 -1 100 94 141 302 192
656 139 976 -20 119 -106 389 -136 428 -15 18 -58 15 -65 -5z"/>
<path d="M961 2591 c-10 -7 -13 -31 -12 -97 5 -273 99 -576 250 -807 46 -69
55 -78 79 -75 43 5 39 36 -19 129 -135 218 -211 456 -228 718 -6 87 -13 126
-22 132 -18 11 -30 11 -48 0z"/>
<path d="M1452 1438 c-26 -26 -12 -53 61 -115 142 -121 180 -141 207 -108 19
23 4 47 -58 92 -31 22 -83 64 -115 92 -61 53 -75 59 -95 39z"/>
<path d="M4954 4166 c-46 -21 -99 -71 -117 -113 -26 -59 -250 -1399 -241
-1447 16 -94 62 -155 167 -223 40 -26 67 -50 67 -60 1 -10 -18 -270 -42 -578
-49 -649 -50 -624 37 -711 44 -45 60 -53 132 -73 63 -17 87 -19 103 -11 20 11
20 16 20 1608 0 1230 -3 1601 -12 1610 -16 16 -75 15 -114 -2z m46 -1605 l0
-1529 -41 11 c-56 14 -115 71 -124 120 -5 23 11 278 37 620 25 320 43 587 41
593 -2 6 -40 32 -84 59 -93 56 -133 99 -148 161 -10 40 1 116 104 726 87 513
120 689 135 713 17 28 50 52 73 54 4 1 7 -687 7 -1528z"/>
<path d="M237 4138 c-15 -8 -17 -35 -17 -268 l0 -260 25 -6 c53 -13 55 -3 55
265 0 135 -4 251 -8 257 -11 17 -37 23 -55 12z"/>
<path d="M416 4137 c-14 -11 -16 -42 -14 -272 l3 -260 24 -3 c47 -7 51 13 51
266 0 132 -4 241 -10 251 -13 25 -35 32 -54 18z"/>
<path d="M592 4134 c-22 -15 -22 -18 -22 -367 0 -405 4 -383 -99 -505 l-61
-74 0 -1036 c0 -813 -3 -1042 -13 -1062 -16 -31 -61 -39 -88 -14 -18 17 -19
46 -19 1061 l0 1044 -71 87 c-39 47 -76 97 -82 111 -8 18 -14 146 -17 391 l-5
365 -35 0 -35 0 0 -370 c0 -428 -4 -408 104 -539 l61 -72 2 -1047 3 -1046 29
-30 c79 -83 205 -53 235 55 8 27 11 351 11 1057 l0 1019 61 73 c100 121 99
116 99 535 0 339 -1 360 -18 369 -14 7 -25 6 -40 -5z"/>
</g>
</svg>
